<svg version="1.1" id="Layer_1" xmlns="http://www.w3.org/2000/svg" xmlns:xlink="http://www.w3.org/1999/xlink" x="0px" y="0px"
	 width="100%" viewBox="0 0 561 426" enable-background="new 0 0 561 426" xml:space="preserve">

<path fill="#171717" opacity="1.000000" stroke="none" 
	d="
M501.072693,186.060120 
	C500.520233,186.579376 499.967773,187.098618 498.890198,187.808533 
	C497.151459,189.222961 495.937866,190.446732 494.724304,191.670517 
	C494.724304,191.670517 494.410309,191.898926 493.901855,191.951569 
	C483.107910,198.721863 472.036163,203.099075 459.593781,203.531403 
	C457.061707,203.619385 454.541840,204.057983 452.016327,204.334961 
	C451.568329,204.294678 451.120361,204.254379 450.047424,203.921417 
	C444.947327,203.305222 440.472198,202.981720 435.997040,202.658203 
	C435.641541,202.585464 435.286041,202.512711 434.436584,202.123199 
	C431.205261,201.376984 428.467896,200.947571 425.730530,200.518158 
	C425.348358,200.414719 424.966217,200.311279 424.082703,199.854889 
	C415.177124,196.943146 406.727081,194.524521 398.378662,191.795029 
	C383.250397,186.848938 368.262787,181.456879 353.053497,176.781174 
	C346.161896,174.662537 338.880341,173.812256 331.775696,172.386581 
	C331.382660,172.310532 330.989594,172.234482 329.994141,171.840118 
	C323.735474,171.521820 318.079163,171.521820 311.675903,171.521820 
	C312.599640,174.098465 312.943939,175.553329 313.610229,176.841675 
	C321.102631,191.328781 328.325745,205.969040 336.297302,220.189117 
	C340.803040,228.226654 346.561005,235.562225 351.754944,243.213974 
	C351.754944,243.213974 351.955994,243.549728 352.005920,244.027176 
	C352.916687,245.433685 353.777466,246.362762 354.638245,247.291840 
	C354.638245,247.291840 354.856812,247.615921 354.914215,248.121643 
	C361.209686,256.173737 367.447784,263.720062 373.685883,271.266418 
	C374.204956,271.839844 374.724030,272.413239 375.461487,273.500885 
	C376.996155,275.097870 378.312408,276.180603 379.628662,277.263336 
	C379.628662,277.263336 379.697083,277.294617 379.681244,277.636047 
	C380.304657,278.412018 380.943878,278.846558 381.583099,279.281097 
	C381.583099,279.281097 381.660583,279.328003 381.663940,279.675537 
	C382.321594,280.436371 382.975922,280.849670 383.630249,281.262970 
	C383.630249,281.262970 383.699249,281.291687 383.705078,281.637146 
	C384.368744,282.400604 385.026581,282.818665 385.684387,283.236694 
	C385.684387,283.236694 385.741760,283.251251 385.759766,283.617767 
	C389.539154,287.298706 393.300537,290.613129 397.061920,293.927582 
	C397.061920,293.927582 397.007202,293.999939 397.036285,294.296082 
	C397.924286,295.148254 398.783203,295.704285 399.642120,296.260345 
	C399.642120,296.260345 399.708374,296.285065 399.717896,296.634949 
	C400.410950,297.384247 401.094482,297.783630 401.778015,298.183044 
	C401.778015,298.183044 401.889221,298.085754 401.862610,298.492920 
	C404.572174,300.916290 407.308319,302.932465 410.044464,304.948669 
	C410.044464,304.948669 410.002533,305.000061 410.049805,305.321960 
	C413.351715,307.803101 416.606323,309.962311 419.860931,312.121552 
	C419.860931,312.121552 419.959961,312.039246 420.018433,312.421631 
	C423.423950,314.815613 426.770966,316.827240 430.118011,318.838837 
	C430.118011,318.838837 430.458649,319.037964 430.687805,319.458557 
	C435.632050,322.226135 440.347137,324.573151 445.062225,326.920166 
	C445.062225,326.920166 445.420532,327.097565 445.690674,327.499023 
	C448.465973,329.140564 450.902954,330.550598 453.489349,331.588196 
	C460.640533,334.457153 467.854065,337.170624 475.042969,339.945587 
	C475.042969,339.945587 475.408966,340.112518 475.669922,340.510071 
	C477.395325,341.663391 478.882477,342.378571 480.319885,343.182678 
	C484.494141,345.517700 486.822021,350.202057 485.713806,353.951752 
	C484.493011,358.082214 480.663757,360.440247 475.505890,360.116180 
	C474.026581,360.023193 472.538757,359.743073 471.100281,359.372406 
	C450.694946,354.113892 431.630829,345.858490 414.184601,333.952026 
	C407.809235,329.601013 401.319611,325.417419 394.882080,321.157471 
	C394.882080,321.157471 394.575256,320.923767 394.401245,320.482971 
	C390.450470,317.406464 386.673706,314.770721 382.896912,312.135010 
	C382.896912,312.135010 382.594635,311.897186 382.428802,311.453796 
	C374.939392,304.256012 367.615845,297.501587 360.292267,290.747192 
	C359.952423,290.321838 359.612610,289.896515 359.091949,288.941528 
	C352.044525,280.520721 345.177887,272.629517 338.311279,264.738312 
	C338.311279,264.738312 338.093597,264.416168 338.027832,263.917328 
	C320.837646,239.243546 305.465546,214.028885 293.942322,186.530563 
	C293.351166,186.707779 292.760040,186.884995 292.168915,187.062225 
	C291.797272,188.389282 291.425659,189.716339 291.054047,191.043411 
	C291.054047,191.043411 290.873688,191.399307 290.473877,191.659943 
	C287.087585,196.976685 284.101044,202.032776 281.114532,207.088882 
	C281.114532,207.088882 280.889282,207.403793 280.459045,207.594788 
	C278.065826,210.559662 276.102875,213.333542 274.139893,216.107422 
	C274.139893,216.107422 273.886444,216.396515 273.436768,216.555481 
	C271.343170,218.824997 269.699188,220.935547 268.055237,223.046082 
	C268.055237,223.046082 267.799896,223.340591 267.353607,223.513153 
	C257.921143,232.686417 248.912521,241.664902 239.963120,250.702057 
	C237.445755,253.244110 235.102341,255.958420 232.679138,258.593719 
	C232.679138,258.593719 232.376816,258.849365 231.914917,258.964813 
	C230.996597,259.744232 230.540176,260.408173 230.083755,261.072144 
	C230.083755,261.072144 230.007324,261.003906 229.693817,261.016785 
	C226.286545,264.049561 223.192795,267.069458 220.099030,270.089386 
	C220.099045,270.089386 220.006226,270.008972 219.697021,270.027344 
	C211.836777,275.924530 204.285751,281.803406 196.734726,287.682251 
	C196.734726,287.682251 196.407120,287.892151 195.897003,287.935181 
	C193.130325,289.377808 190.805099,290.678589 188.627686,292.192017 
	C163.326065,309.778381 135.081589,319.978790 104.994682,325.543976 
	C102.058067,326.087128 99.066292,326.586456 96.094109,326.623413 
	C91.602303,326.679260 87.806725,324.986267 86.455986,320.320709 
	C85.119690,315.705048 87.105156,312.138519 91.149704,309.880524 
	C93.452293,308.595062 96.019753,307.771912 98.494537,306.808929 
	C113.817276,300.846832 129.492630,295.643433 144.358368,288.704437 
	C154.892334,283.787445 164.335358,276.533325 174.265350,270.322418 
	C174.265335,270.322418 174.599167,270.119171 175.103760,270.064636 
	C184.210495,263.870575 192.903625,257.853180 201.375977,251.539459 
	C205.546448,248.431549 209.308411,244.775452 213.255234,241.367432 
	C213.255234,241.367432 213.291748,241.302368 213.669739,241.310120 
	C217.115738,238.328537 220.183762,235.339233 223.251785,232.349915 
	C223.251785,232.349915 223.279572,232.286621 223.649933,232.268494 
	C229.445786,226.312302 234.871277,220.374237 240.296753,214.436157 
	C240.296738,214.436142 240.345123,214.352829 240.716415,214.314819 
	C243.683426,211.152008 246.279160,208.027191 248.874878,204.902374 
	C248.874878,204.902359 249.132706,204.616272 249.583496,204.454865 
	C252.326950,201.505295 254.619629,198.717148 256.912323,195.928986 
	C256.912323,195.928986 257.164185,195.635010 257.607269,195.446350 
	C262.270386,189.573608 266.593506,183.961166 270.632507,178.151199 
	C271.555176,176.823929 271.497528,174.815125 271.891083,173.119980 
	C269.927795,172.945572 267.964539,172.771149 266.001251,172.596741 
	C265.240326,172.528656 264.479401,172.460571 263.090881,172.142700 
	C251.608597,173.166702 240.567947,173.579163 229.934143,175.875580 
	C197.921555,182.788849 166.054886,190.298080 133.039383,190.541962 
	C113.025406,190.689789 93.911263,188.144974 78.456375,173.657028 
	C78.456375,173.657028 78.221497,173.334427 78.150284,172.808640 
	C71.408791,161.073669 72.577667,149.964508 78.472397,138.896515 
	C79.688194,136.613739 80.791298,134.270920 81.946342,131.955780 
	C81.946342,131.955780 82.207970,131.664948 82.659103,131.484283 
	C92.835182,119.940079 105.190704,112.723267 119.471062,108.846474 
	C159.366562,98.015770 198.210892,103.197769 236.415543,116.975502 
	C244.343094,119.834412 252.186859,122.925644 260.069244,125.909805 
	C260.069244,125.909805 260.428741,126.085457 260.687744,126.490486 
	C266.524078,129.820953 272.429260,132.271881 277.572937,135.825104 
	C281.540466,138.565842 284.620087,140.084015 288.997742,136.889725 
	C290.733948,135.622864 293.494263,134.873047 295.607178,135.171265 
	C302.619141,136.160873 308.107300,132.899063 313.761963,129.726562 
	C316.803558,128.020111 319.949615,126.477608 323.133148,125.049789 
	C352.868622,111.713402 384.061432,103.914871 416.485413,101.285614 
	C436.202118,99.686790 455.756500,100.691254 474.395172,108.406563 
	C478.648560,110.167229 482.837036,112.084778 487.055389,113.930130 
	C487.055389,113.930130 487.397308,114.125900 487.628693,114.534760 
	C489.721252,116.322502 491.591278,117.689575 493.442200,119.082100 
	C510.044037,131.572601 516.711731,149.867004 510.840912,168.730957 
	C509.164093,174.118881 505.686218,178.946274 503.034210,184.030701 
	C503.034210,184.030701 503.000000,184.000610 502.688812,184.023300 
	C501.942627,184.717361 501.507660,185.388748 501.072693,186.060120 
M454.700592,131.726151 
	C412.497650,123.373932 372.757202,132.661240 333.826874,148.330933 
	C355.985107,149.364197 376.108215,157.612701 396.553314,164.633698 
	C413.727722,170.531509 430.790985,176.951813 449.222961,177.773331 
	C459.263336,178.220840 469.357086,178.294525 478.221680,172.554840 
	C488.600464,165.834686 489.913544,154.835678 481.589417,145.779968 
	C474.543304,138.114563 465.345123,134.382782 454.700592,131.726151 
M144.153702,127.520226 
	C131.240799,129.490372 118.525528,132.297638 107.603363,139.861435 
	C103.622543,142.618240 99.964737,146.327789 97.288071,150.353088 
	C94.236717,154.941849 95.800308,159.756104 100.849571,161.960144 
	C105.176170,163.848740 109.995193,165.067200 114.701843,165.546082 
	C132.873322,167.394958 150.942505,165.730026 168.815399,162.450790 
	C192.685974,158.071106 216.465012,153.193451 240.291397,148.571106 
	C243.413910,147.965332 246.584015,147.604813 249.732071,147.130722 
	C249.795807,146.612564 249.859543,146.094406 249.923279,145.576263 
	C243.475403,143.205215 237.127396,140.503540 230.562317,138.520599 
	C202.689545,130.101761 174.465958,124.122536 144.153702,127.520226 
z"/>

</svg>