<svg width="728" height="406" viewBox="0 0 728 406" fill="none" xmlns="http://www.w3.org/2000/svg">
<path d="M0 0H728V37.79H0V0Z" fill="#3A67AC" fill-opacity="0.73"/>
<path d="M0 37.79H728V406H0V37.79Z" fill="#F7EBC9" fill-opacity="0.34"/>
<path d="M300 140C300 133.373 305.373 128 312 128H416C422.627 128 428 133.373 428 140V157C428 163.627 422.627 169 416 169H312C305.373 169 300 163.627 300 157V140Z" fill="white"/>
<path d="M428 234C428 227.373 433.373 222 440 222H543C549.627 222 555 227.373 555 234V251C555 257.627 549.627 263 543 263H440C433.373 263 428 257.627 428 251V234Z" fill="white"/>
<path d="M173 234C173 227.373 178.373 222 185 222H288C294.627 222 300 227.373 300 234V251C300 257.627 294.627 263 288 263H185C178.373 263 173 257.627 173 251V234Z" fill="white"/>
<line x1="364" y1="169" x2="364" y2="195" stroke="#3A67AC" stroke-opacity="0.73" stroke-width="2"/>
<line x1="492" y1="195" x2="492" y2="222" stroke="#3A67AC" stroke-opacity="0.73" stroke-width="2"/>
<line x1="237" y1="195" x2="237" y2="222" stroke="#3A67AC" stroke-opacity="0.73" stroke-width="2"/>
<line x1="363" y1="196" x2="236" y2="196" stroke="#3A67AC" stroke-opacity="0.73" stroke-width="2"/>
<line x1="491" y1="196" x2="363" y2="196" stroke="#3A67AC" stroke-opacity="0.73" stroke-width="2"/>
<path d="M314.344 145.016V146.88H316.376V147.48H314.344V149.4H316.616V150H313.616V144.416H316.616V145.016H314.344ZM317.446 147.208C317.446 146.664 317.568 146.176 317.814 145.744C318.059 145.307 318.392 144.965 318.814 144.72C319.24 144.475 319.712 144.352 320.23 144.352C320.838 144.352 321.368 144.499 321.822 144.792C322.275 145.085 322.606 145.501 322.814 146.04H321.942C321.787 145.704 321.563 145.445 321.27 145.264C320.982 145.083 320.635 144.992 320.23 144.992C319.84 144.992 319.491 145.083 319.182 145.264C318.872 145.445 318.63 145.704 318.454 146.04C318.278 146.371 318.19 146.76 318.19 147.208C318.19 147.651 318.278 148.04 318.454 148.376C318.63 148.707 318.872 148.963 319.182 149.144C319.491 149.325 319.84 149.416 320.23 149.416C320.635 149.416 320.982 149.328 321.27 149.152C321.563 148.971 321.787 148.712 321.942 148.376H322.814C322.606 148.909 322.275 149.323 321.822 149.616C321.368 149.904 320.838 150.048 320.23 150.048C319.712 150.048 319.24 149.928 318.814 149.688C318.392 149.443 318.059 149.104 317.814 148.672C317.568 148.24 317.446 147.752 317.446 147.208ZM325.665 150.056C325.297 150.056 324.967 149.992 324.673 149.864C324.385 149.731 324.159 149.549 323.993 149.32C323.828 149.085 323.743 148.816 323.737 148.512H324.513C324.54 148.773 324.647 148.995 324.833 149.176C325.025 149.352 325.303 149.44 325.665 149.44C326.012 149.44 326.284 149.355 326.481 149.184C326.684 149.008 326.785 148.784 326.785 148.512C326.785 148.299 326.727 148.125 326.609 147.992C326.492 147.859 326.345 147.757 326.169 147.688C325.993 147.619 325.756 147.544 325.457 147.464C325.089 147.368 324.793 147.272 324.569 147.176C324.351 147.08 324.161 146.931 324.001 146.728C323.847 146.52 323.769 146.243 323.769 145.896C323.769 145.592 323.847 145.323 324.001 145.088C324.156 144.853 324.372 144.672 324.649 144.544C324.932 144.416 325.255 144.352 325.617 144.352C326.14 144.352 326.567 144.483 326.897 144.744C327.233 145.005 327.423 145.352 327.465 145.784H326.665C326.639 145.571 326.527 145.384 326.329 145.224C326.132 145.059 325.871 144.976 325.545 144.976C325.241 144.976 324.993 145.056 324.801 145.216C324.609 145.371 324.513 145.589 324.513 145.872C324.513 146.075 324.569 146.24 324.681 146.368C324.799 146.496 324.94 146.595 325.105 146.664C325.276 146.728 325.513 146.803 325.817 146.888C326.185 146.989 326.481 147.091 326.705 147.192C326.929 147.288 327.121 147.44 327.281 147.648C327.441 147.851 327.521 148.128 327.521 148.48C327.521 148.752 327.449 149.008 327.305 149.248C327.161 149.488 326.948 149.683 326.665 149.832C326.383 149.981 326.049 150.056 325.665 150.056ZM330.413 144.88V144.216H331.917V150H331.181V144.88H330.413ZM333.168 147.048C333.168 146.131 333.317 145.416 333.616 144.904C333.915 144.387 334.437 144.128 335.184 144.128C335.925 144.128 336.445 144.387 336.744 144.904C337.043 145.416 337.192 146.131 337.192 147.048C337.192 147.981 337.043 148.707 336.744 149.224C336.445 149.741 335.925 150 335.184 150C334.437 150 333.915 149.741 333.616 149.224C333.317 148.707 333.168 147.981 333.168 147.048ZM336.472 147.048C336.472 146.584 336.44 146.192 336.376 145.872C336.317 145.547 336.192 145.285 336 145.088C335.813 144.891 335.541 144.792 335.184 144.792C334.821 144.792 334.544 144.891 334.352 145.088C334.165 145.285 334.04 145.547 333.976 145.872C333.917 146.192 333.888 146.584 333.888 147.048C333.888 147.528 333.917 147.931 333.976 148.256C334.04 148.581 334.165 148.843 334.352 149.04C334.544 149.237 334.821 149.336 335.184 149.336C335.541 149.336 335.813 149.237 336 149.04C336.192 148.843 336.317 148.581 336.376 148.256C336.44 147.931 336.472 147.528 336.472 147.048ZM337.999 144.88V144.216H339.503V150H338.767V144.88H337.999ZM346.047 146.76V147.376H342.855V146.76H346.047Z" fill="black"/>
<path d="M351.314 150.056C350.946 150.056 350.615 149.992 350.322 149.864C350.034 149.731 349.807 149.549 349.642 149.32C349.476 149.085 349.391 148.816 349.386 148.512H350.162C350.188 148.773 350.295 148.995 350.482 149.176C350.674 149.352 350.951 149.44 351.314 149.44C351.66 149.44 351.932 149.355 352.13 149.184C352.332 149.008 352.434 148.784 352.434 148.512C352.434 148.299 352.375 148.125 352.258 147.992C352.14 147.859 351.994 147.757 351.818 147.688C351.642 147.619 351.404 147.544 351.106 147.464C350.738 147.368 350.442 147.272 350.218 147.176C349.999 147.08 349.81 146.931 349.65 146.728C349.495 146.52 349.418 146.243 349.418 145.896C349.418 145.592 349.495 145.323 349.65 145.088C349.804 144.853 350.02 144.672 350.298 144.544C350.58 144.416 350.903 144.352 351.266 144.352C351.788 144.352 352.215 144.483 352.546 144.744C352.882 145.005 353.071 145.352 353.114 145.784H352.314C352.287 145.571 352.175 145.384 351.978 145.224C351.78 145.059 351.519 144.976 351.194 144.976C350.89 144.976 350.642 145.056 350.45 145.216C350.258 145.371 350.162 145.589 350.162 145.872C350.162 146.075 350.218 146.24 350.33 146.368C350.447 146.496 350.588 146.595 350.754 146.664C350.924 146.728 351.162 146.803 351.466 146.888C351.834 146.989 352.13 147.091 352.354 147.192C352.578 147.288 352.77 147.44 352.93 147.648C353.09 147.851 353.17 148.128 353.17 148.48C353.17 148.752 353.098 149.008 352.954 149.248C352.81 149.488 352.596 149.683 352.314 149.832C352.031 149.981 351.698 150.056 351.314 150.056ZM358.017 145.616L355.377 152.064H354.625L355.489 149.952L353.721 145.616H354.529L355.905 149.168L357.265 145.616H358.017ZM360.301 150.072C359.965 150.072 359.663 150.016 359.397 149.904C359.13 149.787 358.919 149.627 358.765 149.424C358.61 149.216 358.525 148.979 358.509 148.712H359.261C359.282 148.931 359.383 149.109 359.565 149.248C359.751 149.387 359.994 149.456 360.293 149.456C360.57 149.456 360.789 149.395 360.949 149.272C361.109 149.149 361.189 148.995 361.189 148.808C361.189 148.616 361.103 148.475 360.933 148.384C360.762 148.288 360.498 148.195 360.141 148.104C359.815 148.019 359.549 147.933 359.341 147.848C359.138 147.757 358.962 147.627 358.813 147.456C358.669 147.28 358.597 147.051 358.597 146.768C358.597 146.544 358.663 146.339 358.797 146.152C358.93 145.965 359.119 145.819 359.365 145.712C359.61 145.6 359.89 145.544 360.205 145.544C360.69 145.544 361.082 145.667 361.381 145.912C361.679 146.157 361.839 146.493 361.861 146.92H361.133C361.117 146.691 361.023 146.507 360.853 146.368C360.687 146.229 360.463 146.16 360.181 146.16C359.919 146.16 359.711 146.216 359.557 146.328C359.402 146.44 359.325 146.587 359.325 146.768C359.325 146.912 359.37 147.032 359.461 147.128C359.557 147.219 359.674 147.293 359.813 147.352C359.957 147.405 360.154 147.467 360.405 147.536C360.719 147.621 360.975 147.707 361.173 147.792C361.37 147.872 361.538 147.995 361.677 148.16C361.821 148.325 361.895 148.541 361.901 148.808C361.901 149.048 361.834 149.264 361.701 149.456C361.567 149.648 361.378 149.8 361.133 149.912C360.893 150.019 360.615 150.072 360.301 150.072ZM363.817 146.216V148.8C363.817 149.013 363.862 149.165 363.953 149.256C364.043 149.341 364.201 149.384 364.424 149.384H364.961V150H364.305C363.899 150 363.595 149.907 363.393 149.72C363.19 149.533 363.089 149.227 363.089 148.8V146.216H362.521V145.616H363.089V144.512H363.817V145.616H364.961V146.216H363.817ZM369.843 147.64C369.843 147.779 369.835 147.925 369.819 148.08H366.315C366.341 148.512 366.488 148.851 366.755 149.096C367.027 149.336 367.355 149.456 367.739 149.456C368.053 149.456 368.315 149.384 368.523 149.24C368.736 149.091 368.885 148.893 368.971 148.648H369.755C369.637 149.069 369.403 149.413 369.051 149.68C368.699 149.941 368.261 150.072 367.739 150.072C367.323 150.072 366.949 149.979 366.619 149.792C366.293 149.605 366.037 149.341 365.851 149C365.664 148.653 365.571 148.253 365.571 147.8C365.571 147.347 365.661 146.949 365.843 146.608C366.024 146.267 366.277 146.005 366.603 145.824C366.933 145.637 367.312 145.544 367.739 145.544C368.155 145.544 368.523 145.635 368.843 145.816C369.163 145.997 369.408 146.248 369.579 146.568C369.755 146.883 369.843 147.24 369.843 147.64ZM369.091 147.488C369.091 147.211 369.029 146.973 368.907 146.776C368.784 146.573 368.616 146.421 368.403 146.32C368.195 146.213 367.963 146.16 367.707 146.16C367.339 146.16 367.024 146.277 366.763 146.512C366.507 146.747 366.36 147.072 366.323 147.488H369.091ZM376.076 145.536C376.417 145.536 376.721 145.608 376.988 145.752C377.254 145.891 377.465 146.101 377.62 146.384C377.774 146.667 377.852 147.011 377.852 147.416V150H377.132V147.52C377.132 147.083 377.022 146.749 376.804 146.52C376.59 146.285 376.3 146.168 375.932 146.168C375.553 146.168 375.252 146.291 375.028 146.536C374.804 146.776 374.692 147.125 374.692 147.584V150H373.972V147.52C373.972 147.083 373.862 146.749 373.644 146.52C373.43 146.285 373.14 146.168 372.772 146.168C372.393 146.168 372.092 146.291 371.868 146.536C371.644 146.776 371.532 147.125 371.532 147.584V150H370.804V145.616H371.532V146.248C371.676 146.019 371.868 145.843 372.108 145.72C372.353 145.597 372.622 145.536 372.916 145.536C373.284 145.536 373.609 145.619 373.892 145.784C374.174 145.949 374.385 146.192 374.524 146.512C374.646 146.203 374.849 145.963 375.132 145.792C375.414 145.621 375.729 145.536 376.076 145.536ZM382.914 144.424C383.523 144.424 384.048 144.539 384.491 144.768C384.939 144.992 385.28 145.315 385.515 145.736C385.755 146.157 385.875 146.653 385.875 147.224C385.875 147.795 385.755 148.291 385.515 148.712C385.28 149.128 384.939 149.448 384.491 149.672C384.048 149.891 383.523 150 382.914 150H381.179V144.424H382.914ZM382.914 149.4C383.635 149.4 384.184 149.211 384.562 148.832C384.941 148.448 385.131 147.912 385.131 147.224C385.131 146.531 384.939 145.989 384.555 145.6C384.176 145.211 383.629 145.016 382.914 145.016H381.907V149.4H382.914ZM390.835 147.64C390.835 147.779 390.827 147.925 390.811 148.08H387.307C387.333 148.512 387.48 148.851 387.747 149.096C388.019 149.336 388.347 149.456 388.731 149.456C389.045 149.456 389.307 149.384 389.515 149.24C389.728 149.091 389.877 148.893 389.963 148.648H390.747C390.629 149.069 390.395 149.413 390.043 149.68C389.691 149.941 389.253 150.072 388.731 150.072C388.315 150.072 387.941 149.979 387.611 149.792C387.285 149.605 387.029 149.341 386.843 149C386.656 148.653 386.563 148.253 386.563 147.8C386.563 147.347 386.653 146.949 386.835 146.608C387.016 146.267 387.269 146.005 387.595 145.824C387.925 145.637 388.304 145.544 388.731 145.544C389.147 145.544 389.515 145.635 389.835 145.816C390.155 145.997 390.4 146.248 390.571 146.568C390.747 146.883 390.835 147.24 390.835 147.64ZM390.083 147.488C390.083 147.211 390.021 146.973 389.899 146.776C389.776 146.573 389.608 146.421 389.395 146.32C389.187 146.213 388.955 146.16 388.699 146.16C388.331 146.16 388.016 146.277 387.755 146.512C387.499 146.747 387.352 147.072 387.315 147.488H390.083ZM393.348 150.072C393.012 150.072 392.71 150.016 392.444 149.904C392.177 149.787 391.966 149.627 391.812 149.424C391.657 149.216 391.572 148.979 391.556 148.712H392.308C392.329 148.931 392.43 149.109 392.612 149.248C392.798 149.387 393.041 149.456 393.34 149.456C393.617 149.456 393.836 149.395 393.996 149.272C394.156 149.149 394.236 148.995 394.236 148.808C394.236 148.616 394.15 148.475 393.98 148.384C393.809 148.288 393.545 148.195 393.188 148.104C392.862 148.019 392.596 147.933 392.388 147.848C392.185 147.757 392.009 147.627 391.86 147.456C391.716 147.28 391.644 147.051 391.644 146.768C391.644 146.544 391.71 146.339 391.844 146.152C391.977 145.965 392.166 145.819 392.412 145.712C392.657 145.6 392.937 145.544 393.252 145.544C393.737 145.544 394.129 145.667 394.428 145.912C394.726 146.157 394.886 146.493 394.908 146.92H394.18C394.164 146.691 394.07 146.507 393.9 146.368C393.734 146.229 393.51 146.16 393.228 146.16C392.966 146.16 392.758 146.216 392.604 146.328C392.449 146.44 392.372 146.587 392.372 146.768C392.372 146.912 392.417 147.032 392.508 147.128C392.604 147.219 392.721 147.293 392.86 147.352C393.004 147.405 393.201 147.467 393.452 147.536C393.766 147.621 394.022 147.707 394.22 147.792C394.417 147.872 394.585 147.995 394.724 148.16C394.868 148.325 394.942 148.541 394.948 148.808C394.948 149.048 394.881 149.264 394.748 149.456C394.614 149.648 394.425 149.8 394.18 149.912C393.94 150.019 393.662 150.072 393.348 150.072ZM396.351 144.904C396.213 144.904 396.095 144.856 395.999 144.76C395.903 144.664 395.855 144.547 395.855 144.408C395.855 144.269 395.903 144.152 395.999 144.056C396.095 143.96 396.213 143.912 396.351 143.912C396.485 143.912 396.597 143.96 396.687 144.056C396.783 144.152 396.831 144.269 396.831 144.408C396.831 144.547 396.783 144.664 396.687 144.76C396.597 144.856 396.485 144.904 396.351 144.904ZM396.703 145.616V150H395.975V145.616H396.703ZM399.752 145.544C400.131 145.544 400.461 145.627 400.744 145.792C401.032 145.957 401.245 146.165 401.384 146.416V145.616H402.12V150.096C402.12 150.496 402.035 150.851 401.864 151.16C401.693 151.475 401.448 151.72 401.128 151.896C400.813 152.072 400.445 152.16 400.024 152.16C399.448 152.16 398.968 152.024 398.584 151.752C398.2 151.48 397.973 151.109 397.904 150.64H398.624C398.704 150.907 398.869 151.12 399.12 151.28C399.371 151.445 399.672 151.528 400.024 151.528C400.424 151.528 400.749 151.403 401 151.152C401.256 150.901 401.384 150.549 401.384 150.096V149.176C401.24 149.432 401.027 149.645 400.744 149.816C400.461 149.987 400.131 150.072 399.752 150.072C399.363 150.072 399.008 149.976 398.688 149.784C398.373 149.592 398.125 149.323 397.944 148.976C397.763 148.629 397.672 148.235 397.672 147.792C397.672 147.344 397.763 146.952 397.944 146.616C398.125 146.275 398.373 146.011 398.688 145.824C399.008 145.637 399.363 145.544 399.752 145.544ZM401.384 147.8C401.384 147.469 401.317 147.181 401.184 146.936C401.051 146.691 400.869 146.504 400.64 146.376C400.416 146.243 400.168 146.176 399.896 146.176C399.624 146.176 399.376 146.24 399.152 146.368C398.928 146.496 398.749 146.683 398.616 146.928C398.483 147.173 398.416 147.461 398.416 147.792C398.416 148.128 398.483 148.421 398.616 148.672C398.749 148.917 398.928 149.107 399.152 149.24C399.376 149.368 399.624 149.432 399.896 149.432C400.168 149.432 400.416 149.368 400.64 149.24C400.869 149.107 401.051 148.917 401.184 148.672C401.317 148.421 401.384 148.131 401.384 147.8ZM405.486 145.536C406.02 145.536 406.452 145.699 406.782 146.024C407.113 146.344 407.278 146.808 407.278 147.416V150H406.558V147.52C406.558 147.083 406.449 146.749 406.23 146.52C406.012 146.285 405.713 146.168 405.334 146.168C404.95 146.168 404.644 146.288 404.414 146.528C404.19 146.768 404.078 147.117 404.078 147.576V150H403.35V145.616H404.078V146.24C404.222 146.016 404.417 145.843 404.662 145.72C404.913 145.597 405.188 145.536 405.486 145.536Z" fill="#6C6C6C"/>
<path d="M442.344 233.016V234.88H444.376V235.48H442.344V237.4H444.616V238H441.616V232.416H444.616V233.016H442.344ZM445.446 235.208C445.446 234.664 445.568 234.176 445.814 233.744C446.059 233.307 446.392 232.965 446.814 232.72C447.24 232.475 447.712 232.352 448.23 232.352C448.838 232.352 449.368 232.499 449.822 232.792C450.275 233.085 450.606 233.501 450.814 234.04H449.942C449.787 233.704 449.563 233.445 449.27 233.264C448.982 233.083 448.635 232.992 448.23 232.992C447.84 232.992 447.491 233.083 447.182 233.264C446.872 233.445 446.63 233.704 446.454 234.04C446.278 234.371 446.19 234.76 446.19 235.208C446.19 235.651 446.278 236.04 446.454 236.376C446.63 236.707 446.872 236.963 447.182 237.144C447.491 237.325 447.84 237.416 448.23 237.416C448.635 237.416 448.982 237.328 449.27 237.152C449.563 236.971 449.787 236.712 449.942 236.376H450.814C450.606 236.909 450.275 237.323 449.822 237.616C449.368 237.904 448.838 238.048 448.23 238.048C447.712 238.048 447.24 237.928 446.814 237.688C446.392 237.443 446.059 237.104 445.814 236.672C445.568 236.24 445.446 235.752 445.446 235.208ZM453.665 238.056C453.297 238.056 452.967 237.992 452.673 237.864C452.385 237.731 452.159 237.549 451.993 237.32C451.828 237.085 451.743 236.816 451.737 236.512H452.513C452.54 236.773 452.647 236.995 452.833 237.176C453.025 237.352 453.303 237.44 453.665 237.44C454.012 237.44 454.284 237.355 454.481 237.184C454.684 237.008 454.785 236.784 454.785 236.512C454.785 236.299 454.727 236.125 454.609 235.992C454.492 235.859 454.345 235.757 454.169 235.688C453.993 235.619 453.756 235.544 453.457 235.464C453.089 235.368 452.793 235.272 452.569 235.176C452.351 235.08 452.161 234.931 452.001 234.728C451.847 234.52 451.769 234.243 451.769 233.896C451.769 233.592 451.847 233.323 452.001 233.088C452.156 232.853 452.372 232.672 452.649 232.544C452.932 232.416 453.255 232.352 453.617 232.352C454.14 232.352 454.567 232.483 454.897 232.744C455.233 233.005 455.423 233.352 455.465 233.784H454.665C454.639 233.571 454.527 233.384 454.329 233.224C454.132 233.059 453.871 232.976 453.545 232.976C453.241 232.976 452.993 233.056 452.801 233.216C452.609 233.371 452.513 233.589 452.513 233.872C452.513 234.075 452.569 234.24 452.681 234.368C452.799 234.496 452.94 234.595 453.105 234.664C453.276 234.728 453.513 234.803 453.817 234.888C454.185 234.989 454.481 235.091 454.705 235.192C454.929 235.288 455.121 235.44 455.281 235.648C455.441 235.851 455.521 236.128 455.521 236.48C455.521 236.752 455.449 237.008 455.305 237.248C455.161 237.488 454.948 237.683 454.665 237.832C454.383 237.981 454.049 238.056 453.665 238.056ZM458.413 232.88V232.216H459.917V238H459.181V232.88H458.413ZM461.168 235.048C461.168 234.131 461.317 233.416 461.616 232.904C461.915 232.387 462.437 232.128 463.184 232.128C463.925 232.128 464.445 232.387 464.744 232.904C465.043 233.416 465.192 234.131 465.192 235.048C465.192 235.981 465.043 236.707 464.744 237.224C464.445 237.741 463.925 238 463.184 238C462.437 238 461.915 237.741 461.616 237.224C461.317 236.707 461.168 235.981 461.168 235.048ZM464.472 235.048C464.472 234.584 464.44 234.192 464.376 233.872C464.317 233.547 464.192 233.285 464 233.088C463.813 232.891 463.541 232.792 463.184 232.792C462.821 232.792 462.544 232.891 462.352 233.088C462.165 233.285 462.04 233.547 461.976 233.872C461.917 234.192 461.888 234.584 461.888 235.048C461.888 235.528 461.917 235.931 461.976 236.256C462.04 236.581 462.165 236.843 462.352 237.04C462.544 237.237 462.821 237.336 463.184 237.336C463.541 237.336 463.813 237.237 464 237.04C464.192 236.843 464.317 236.581 464.376 236.256C464.44 235.931 464.472 235.528 464.472 235.048ZM465.999 232.88V232.216H467.503V238H466.767V232.88H465.999ZM474.047 234.76V235.376H470.855V234.76H474.047Z" fill="black"/>
<path d="M480.074 238.056C479.556 238.056 479.084 237.936 478.658 237.696C478.231 237.451 477.892 237.112 477.642 236.68C477.396 236.243 477.274 235.752 477.274 235.208C477.274 234.664 477.396 234.176 477.642 233.744C477.892 233.307 478.231 232.968 478.658 232.728C479.084 232.483 479.556 232.36 480.074 232.36C480.596 232.36 481.071 232.483 481.498 232.728C481.924 232.968 482.26 233.304 482.506 233.736C482.751 234.168 482.874 234.659 482.874 235.208C482.874 235.757 482.751 236.248 482.506 236.68C482.26 237.112 481.924 237.451 481.498 237.696C481.071 237.936 480.596 238.056 480.074 238.056ZM480.074 237.424C480.463 237.424 480.812 237.333 481.122 237.152C481.436 236.971 481.682 236.712 481.858 236.376C482.039 236.04 482.13 235.651 482.13 235.208C482.13 234.76 482.039 234.371 481.858 234.04C481.682 233.704 481.439 233.445 481.13 233.264C480.82 233.083 480.468 232.992 480.074 232.992C479.679 232.992 479.327 233.083 479.018 233.264C478.708 233.445 478.463 233.704 478.282 234.04C478.106 234.371 478.018 234.76 478.018 235.208C478.018 235.651 478.106 236.04 478.282 236.376C478.463 236.712 478.708 236.971 479.018 237.152C479.332 237.333 479.684 237.424 480.074 237.424ZM484.563 234.432C484.712 234.171 484.931 233.957 485.219 233.792C485.507 233.627 485.835 233.544 486.203 233.544C486.597 233.544 486.952 233.637 487.267 233.824C487.581 234.011 487.829 234.275 488.011 234.616C488.192 234.952 488.283 235.344 488.283 235.792C488.283 236.235 488.192 236.629 488.011 236.976C487.829 237.323 487.579 237.592 487.259 237.784C486.944 237.976 486.592 238.072 486.203 238.072C485.824 238.072 485.491 237.989 485.203 237.824C484.92 237.659 484.707 237.448 484.563 237.192V238H483.835V232.08H484.563V234.432ZM487.539 235.792C487.539 235.461 487.472 235.173 487.339 234.928C487.205 234.683 487.024 234.496 486.795 234.368C486.571 234.24 486.323 234.176 486.051 234.176C485.784 234.176 485.536 234.243 485.307 234.376C485.083 234.504 484.901 234.693 484.763 234.944C484.629 235.189 484.563 235.475 484.563 235.8C484.563 236.131 484.629 236.421 484.763 236.672C484.901 236.917 485.083 237.107 485.307 237.24C485.536 237.368 485.784 237.432 486.051 237.432C486.323 237.432 486.571 237.368 486.795 237.24C487.024 237.107 487.205 236.917 487.339 236.672C487.472 236.421 487.539 236.128 487.539 235.792ZM489.633 232.904C489.494 232.904 489.377 232.856 489.281 232.76C489.19 232.664 489.145 232.547 489.145 232.408C489.145 232.269 489.19 232.152 489.281 232.056C489.377 231.96 489.494 231.912 489.633 231.912C489.772 231.912 489.886 231.96 489.977 232.056C490.073 232.152 490.121 232.269 490.121 232.408C490.121 232.547 490.073 232.664 489.977 232.76C489.886 232.856 489.772 232.904 489.633 232.904ZM489.993 238.952C489.993 239.341 489.894 239.627 489.697 239.808C489.5 239.989 489.212 240.08 488.833 240.08H488.409V239.464H488.713C488.916 239.464 489.057 239.424 489.137 239.344C489.222 239.264 489.265 239.128 489.265 238.936V233.616H489.993V238.952ZM495.225 235.64C495.225 235.779 495.217 235.925 495.201 236.08H491.697C491.724 236.512 491.871 236.851 492.137 237.096C492.409 237.336 492.737 237.456 493.121 237.456C493.436 237.456 493.697 237.384 493.905 237.24C494.119 237.091 494.268 236.893 494.353 236.648H495.137C495.02 237.069 494.785 237.413 494.433 237.68C494.081 237.941 493.644 238.072 493.121 238.072C492.705 238.072 492.332 237.979 492.001 237.792C491.676 237.605 491.42 237.341 491.233 237C491.047 236.653 490.953 236.253 490.953 235.8C490.953 235.347 491.044 234.949 491.225 234.608C491.407 234.267 491.66 234.005 491.985 233.824C492.316 233.637 492.695 233.544 493.121 233.544C493.537 233.544 493.905 233.635 494.225 233.816C494.545 233.997 494.791 234.248 494.961 234.568C495.137 234.883 495.225 235.24 495.225 235.64ZM494.473 235.488C494.473 235.211 494.412 234.973 494.289 234.776C494.167 234.573 493.999 234.421 493.785 234.32C493.577 234.213 493.345 234.16 493.089 234.16C492.721 234.16 492.407 234.277 492.145 234.512C491.889 234.747 491.743 235.072 491.705 235.488H494.473ZM495.914 235.8C495.914 235.347 496.005 234.952 496.186 234.616C496.368 234.275 496.618 234.011 496.938 233.824C497.264 233.637 497.634 233.544 498.05 233.544C498.589 233.544 499.032 233.675 499.378 233.936C499.73 234.197 499.962 234.56 500.074 235.024H499.29C499.216 234.757 499.069 234.547 498.85 234.392C498.637 234.237 498.37 234.16 498.05 234.16C497.634 234.16 497.298 234.304 497.042 234.592C496.786 234.875 496.658 235.277 496.658 235.8C496.658 236.328 496.786 236.736 497.042 237.024C497.298 237.312 497.634 237.456 498.05 237.456C498.37 237.456 498.637 237.381 498.85 237.232C499.064 237.083 499.21 236.869 499.29 236.592H500.074C499.957 237.04 499.722 237.4 499.37 237.672C499.018 237.939 498.578 238.072 498.05 238.072C497.634 238.072 497.264 237.979 496.938 237.792C496.618 237.605 496.368 237.341 496.186 237C496.005 236.659 495.914 236.259 495.914 235.8ZM501.934 234.216V236.8C501.934 237.013 501.979 237.165 502.07 237.256C502.16 237.341 502.318 237.384 502.542 237.384H503.078V238H502.422C502.016 238 501.712 237.907 501.51 237.72C501.307 237.533 501.206 237.227 501.206 236.8V234.216H500.638V233.616H501.206V232.512H501.934V233.616H503.078V234.216H501.934ZM508.621 238.056C508.103 238.056 507.631 237.936 507.205 237.696C506.778 237.451 506.439 237.112 506.189 236.68C505.943 236.243 505.821 235.752 505.821 235.208C505.821 234.664 505.943 234.176 506.189 233.744C506.439 233.307 506.778 232.968 507.205 232.728C507.631 232.483 508.103 232.36 508.621 232.36C509.143 232.36 509.618 232.483 510.045 232.728C510.471 232.968 510.807 233.304 511.053 233.736C511.298 234.168 511.421 234.659 511.421 235.208C511.421 235.757 511.298 236.248 511.053 236.68C510.807 237.112 510.471 237.451 510.045 237.696C509.618 237.936 509.143 238.056 508.621 238.056ZM508.621 237.424C509.01 237.424 509.359 237.333 509.669 237.152C509.983 236.971 510.229 236.712 510.405 236.376C510.586 236.04 510.677 235.651 510.677 235.208C510.677 234.76 510.586 234.371 510.405 234.04C510.229 233.704 509.986 233.445 509.677 233.264C509.367 233.083 509.015 232.992 508.621 232.992C508.226 232.992 507.874 233.083 507.565 233.264C507.255 233.445 507.01 233.704 506.829 234.04C506.653 234.371 506.565 234.76 506.565 235.208C506.565 235.651 506.653 236.04 506.829 236.376C507.01 236.712 507.255 236.971 507.565 237.152C507.879 237.333 508.231 237.424 508.621 237.424ZM513.11 234.328C513.238 234.077 513.419 233.883 513.654 233.744C513.894 233.605 514.184 233.536 514.526 233.536V234.288H514.334C513.518 234.288 513.11 234.731 513.11 235.616V238H512.382V233.616H513.11V234.328ZM515.742 232.904C515.603 232.904 515.486 232.856 515.39 232.76C515.294 232.664 515.246 232.547 515.246 232.408C515.246 232.269 515.294 232.152 515.39 232.056C515.486 231.96 515.603 231.912 515.742 231.912C515.875 231.912 515.987 231.96 516.078 232.056C516.174 232.152 516.222 232.269 516.222 232.408C516.222 232.547 516.174 232.664 516.078 232.76C515.987 232.856 515.875 232.904 515.742 232.904ZM516.094 233.616V238H515.366V233.616H516.094ZM521.335 235.64C521.335 235.779 521.327 235.925 521.311 236.08H517.807C517.833 236.512 517.98 236.851 518.247 237.096C518.519 237.336 518.847 237.456 519.231 237.456C519.545 237.456 519.807 237.384 520.015 237.24C520.228 237.091 520.377 236.893 520.463 236.648H521.247C521.129 237.069 520.895 237.413 520.543 237.68C520.191 237.941 519.753 238.072 519.231 238.072C518.815 238.072 518.441 237.979 518.111 237.792C517.785 237.605 517.529 237.341 517.343 237C517.156 236.653 517.063 236.253 517.063 235.8C517.063 235.347 517.153 234.949 517.335 234.608C517.516 234.267 517.769 234.005 518.095 233.824C518.425 233.637 518.804 233.544 519.231 233.544C519.647 233.544 520.015 233.635 520.335 233.816C520.655 233.997 520.9 234.248 521.071 234.568C521.247 234.883 521.335 235.24 521.335 235.64ZM520.583 235.488C520.583 235.211 520.521 234.973 520.399 234.776C520.276 234.573 520.108 234.421 519.895 234.32C519.687 234.213 519.455 234.16 519.199 234.16C518.831 234.16 518.516 234.277 518.255 234.512C517.999 234.747 517.852 235.072 517.815 235.488H520.583ZM524.432 233.536C524.965 233.536 525.397 233.699 525.728 234.024C526.058 234.344 526.224 234.808 526.224 235.416V238H525.504V235.52C525.504 235.083 525.394 234.749 525.176 234.52C524.957 234.285 524.658 234.168 524.28 234.168C523.896 234.168 523.589 234.288 523.36 234.528C523.136 234.768 523.024 235.117 523.024 235.576V238H522.296V233.616H523.024V234.24C523.168 234.016 523.362 233.843 523.608 233.72C523.858 233.597 524.133 233.536 524.432 233.536ZM528.301 234.216V236.8C528.301 237.013 528.346 237.165 528.437 237.256C528.528 237.341 528.685 237.384 528.909 237.384H529.445V238H528.789C528.384 238 528.08 237.907 527.877 237.72C527.674 237.533 527.573 237.227 527.573 236.8V234.216H527.005V233.616H527.573V232.512H528.301V233.616H529.445V234.216H528.301ZM534.327 235.64C534.327 235.779 534.319 235.925 534.303 236.08H530.799C530.826 236.512 530.972 236.851 531.239 237.096C531.511 237.336 531.839 237.456 532.223 237.456C532.538 237.456 532.799 237.384 533.007 237.24C533.22 237.091 533.37 236.893 533.455 236.648H534.239C534.122 237.069 533.887 237.413 533.535 237.68C533.183 237.941 532.746 238.072 532.223 238.072C531.807 238.072 531.434 237.979 531.103 237.792C530.778 237.605 530.522 237.341 530.335 237C530.148 236.653 530.055 236.253 530.055 235.8C530.055 235.347 530.146 234.949 530.327 234.608C530.508 234.267 530.762 234.005 531.087 233.824C531.418 233.637 531.796 233.544 532.223 233.544C532.639 233.544 533.007 233.635 533.327 233.816C533.647 233.997 533.892 234.248 534.063 234.568C534.239 234.883 534.327 235.24 534.327 235.64ZM533.575 235.488C533.575 235.211 533.514 234.973 533.391 234.776C533.268 234.573 533.1 234.421 532.887 234.32C532.679 234.213 532.447 234.16 532.191 234.16C531.823 234.16 531.508 234.277 531.247 234.512C530.991 234.747 530.844 235.072 530.807 235.488H533.575ZM535.016 235.792C535.016 235.344 535.107 234.952 535.288 234.616C535.469 234.275 535.717 234.011 536.032 233.824C536.352 233.637 536.709 233.544 537.104 233.544C537.445 233.544 537.763 233.624 538.056 233.784C538.349 233.939 538.573 234.144 538.728 234.4V232.08H539.464V238H538.728V237.176C538.584 237.437 538.371 237.653 538.088 237.824C537.805 237.989 537.475 238.072 537.096 238.072C536.707 238.072 536.352 237.976 536.032 237.784C535.717 237.592 535.469 237.323 535.288 236.976C535.107 236.629 535.016 236.235 535.016 235.792ZM538.728 235.8C538.728 235.469 538.661 235.181 538.528 234.936C538.395 234.691 538.213 234.504 537.984 234.376C537.76 234.243 537.512 234.176 537.24 234.176C536.968 234.176 536.72 234.24 536.496 234.368C536.272 234.496 536.093 234.683 535.96 234.928C535.827 235.173 535.76 235.461 535.76 235.792C535.76 236.128 535.827 236.421 535.96 236.672C536.093 236.917 536.272 237.107 536.496 237.24C536.72 237.368 536.968 237.432 537.24 237.432C537.512 237.432 537.76 237.368 537.984 237.24C538.213 237.107 538.395 236.917 538.528 236.672C538.661 236.421 538.728 236.131 538.728 235.8ZM445.344 246.056C445.344 246.52 445.184 246.907 444.864 247.216C444.549 247.52 444.067 247.672 443.416 247.672H442.344V250H441.616V244.424H443.416C444.045 244.424 444.523 244.576 444.848 244.88C445.179 245.184 445.344 245.576 445.344 246.056ZM443.416 247.072C443.821 247.072 444.12 246.984 444.312 246.808C444.504 246.632 444.6 246.381 444.6 246.056C444.6 245.368 444.205 245.024 443.416 245.024H442.344V247.072H443.416ZM446.977 246.328C447.105 246.077 447.286 245.883 447.521 245.744C447.761 245.605 448.051 245.536 448.393 245.536V246.288H448.201C447.385 246.288 446.977 246.731 446.977 247.616V250H446.249V245.616H446.977V246.328ZM451.145 250.072C450.735 250.072 450.361 249.979 450.025 249.792C449.695 249.605 449.433 249.341 449.241 249C449.055 248.653 448.961 248.253 448.961 247.8C448.961 247.352 449.057 246.957 449.249 246.616C449.447 246.269 449.713 246.005 450.049 245.824C450.385 245.637 450.761 245.544 451.177 245.544C451.593 245.544 451.969 245.637 452.305 245.824C452.641 246.005 452.905 246.267 453.097 246.608C453.295 246.949 453.393 247.347 453.393 247.8C453.393 248.253 453.292 248.653 453.089 249C452.892 249.341 452.623 249.605 452.281 249.792C451.94 249.979 451.561 250.072 451.145 250.072ZM451.145 249.432C451.407 249.432 451.652 249.371 451.881 249.248C452.111 249.125 452.295 248.941 452.433 248.696C452.577 248.451 452.649 248.152 452.649 247.8C452.649 247.448 452.58 247.149 452.441 246.904C452.303 246.659 452.121 246.477 451.897 246.36C451.673 246.237 451.431 246.176 451.169 246.176C450.903 246.176 450.657 246.237 450.433 246.36C450.215 246.477 450.039 246.659 449.905 246.904C449.772 247.149 449.705 247.448 449.705 247.8C449.705 248.157 449.769 248.459 449.897 248.704C450.031 248.949 450.207 249.133 450.425 249.256C450.644 249.373 450.884 249.432 451.145 249.432ZM456.158 245.544C456.537 245.544 456.868 245.627 457.15 245.792C457.438 245.957 457.652 246.165 457.79 246.416V245.616H458.526V250.096C458.526 250.496 458.441 250.851 458.27 251.16C458.1 251.475 457.854 251.72 457.534 251.896C457.22 252.072 456.852 252.16 456.43 252.16C455.854 252.16 455.374 252.024 454.99 251.752C454.606 251.48 454.38 251.109 454.31 250.64H455.03C455.11 250.907 455.276 251.12 455.526 251.28C455.777 251.445 456.078 251.528 456.43 251.528C456.83 251.528 457.156 251.403 457.406 251.152C457.662 250.901 457.79 250.549 457.79 250.096V249.176C457.646 249.432 457.433 249.645 457.15 249.816C456.868 249.987 456.537 250.072 456.158 250.072C455.769 250.072 455.414 249.976 455.094 249.784C454.78 249.592 454.532 249.323 454.35 248.976C454.169 248.629 454.078 248.235 454.078 247.792C454.078 247.344 454.169 246.952 454.35 246.616C454.532 246.275 454.78 246.011 455.094 245.824C455.414 245.637 455.769 245.544 456.158 245.544ZM457.79 247.8C457.79 247.469 457.724 247.181 457.59 246.936C457.457 246.691 457.276 246.504 457.046 246.376C456.822 246.243 456.574 246.176 456.302 246.176C456.03 246.176 455.782 246.24 455.558 246.368C455.334 246.496 455.156 246.683 455.022 246.928C454.889 247.173 454.822 247.461 454.822 247.792C454.822 248.128 454.889 248.421 455.022 248.672C455.156 248.917 455.334 249.107 455.558 249.24C455.782 249.368 456.03 249.432 456.302 249.432C456.574 249.432 456.822 249.368 457.046 249.24C457.276 249.107 457.457 248.917 457.59 248.672C457.724 248.421 457.79 248.131 457.79 247.8ZM460.485 246.328C460.613 246.077 460.794 245.883 461.029 245.744C461.269 245.605 461.559 245.536 461.901 245.536V246.288H461.709C460.893 246.288 460.485 246.731 460.485 247.616V250H459.757V245.616H460.485V246.328ZM462.469 247.792C462.469 247.344 462.56 246.952 462.741 246.616C462.922 246.275 463.17 246.011 463.485 245.824C463.805 245.637 464.16 245.544 464.549 245.544C464.933 245.544 465.266 245.627 465.549 245.792C465.832 245.957 466.042 246.165 466.181 246.416V245.616H466.917V250H466.181V249.184C466.037 249.44 465.821 249.653 465.533 249.824C465.25 249.989 464.92 250.072 464.541 250.072C464.152 250.072 463.8 249.976 463.485 249.784C463.17 249.592 462.922 249.323 462.741 248.976C462.56 248.629 462.469 248.235 462.469 247.792ZM466.181 247.8C466.181 247.469 466.114 247.181 465.981 246.936C465.848 246.691 465.666 246.504 465.437 246.376C465.213 246.243 464.965 246.176 464.693 246.176C464.421 246.176 464.173 246.24 463.949 246.368C463.725 246.496 463.546 246.683 463.413 246.928C463.28 247.173 463.213 247.461 463.213 247.792C463.213 248.128 463.28 248.421 463.413 248.672C463.546 248.917 463.725 249.107 463.949 249.24C464.173 249.368 464.421 249.432 464.693 249.432C464.965 249.432 465.213 249.368 465.437 249.24C465.666 249.107 465.848 248.917 465.981 248.672C466.114 248.421 466.181 248.131 466.181 247.8ZM473.419 245.536C473.761 245.536 474.065 245.608 474.331 245.752C474.598 245.891 474.809 246.101 474.963 246.384C475.118 246.667 475.195 247.011 475.195 247.416V250H474.475V247.52C474.475 247.083 474.366 246.749 474.147 246.52C473.934 246.285 473.643 246.168 473.275 246.168C472.897 246.168 472.595 246.291 472.371 246.536C472.147 246.776 472.035 247.125 472.035 247.584V250H471.315V247.52C471.315 247.083 471.206 246.749 470.987 246.52C470.774 246.285 470.483 246.168 470.115 246.168C469.737 246.168 469.435 246.291 469.211 246.536C468.987 246.776 468.875 247.125 468.875 247.584V250H468.147V245.616H468.875V246.248C469.019 246.019 469.211 245.843 469.451 245.72C469.697 245.597 469.966 245.536 470.259 245.536C470.627 245.536 470.953 245.619 471.235 245.784C471.518 245.949 471.729 246.192 471.867 246.512C471.99 246.203 472.193 245.963 472.475 245.792C472.758 245.621 473.073 245.536 473.419 245.536ZM481.661 245.536C482.003 245.536 482.307 245.608 482.573 245.752C482.84 245.891 483.051 246.101 483.205 246.384C483.36 246.667 483.437 247.011 483.437 247.416V250H482.717V247.52C482.717 247.083 482.608 246.749 482.389 246.52C482.176 246.285 481.885 246.168 481.517 246.168C481.139 246.168 480.837 246.291 480.613 246.536C480.389 246.776 480.277 247.125 480.277 247.584V250H479.557V247.52C479.557 247.083 479.448 246.749 479.229 246.52C479.016 246.285 478.725 246.168 478.357 246.168C477.979 246.168 477.677 246.291 477.453 246.536C477.229 246.776 477.117 247.125 477.117 247.584V250H476.389V245.616H477.117V246.248C477.261 246.019 477.453 245.843 477.693 245.72C477.939 245.597 478.208 245.536 478.501 245.536C478.869 245.536 479.195 245.619 479.477 245.784C479.76 245.949 479.971 246.192 480.109 246.512C480.232 246.203 480.435 245.963 480.717 245.792C481 245.621 481.315 245.536 481.661 245.536ZM485.008 244.904C484.869 244.904 484.752 244.856 484.656 244.76C484.56 244.664 484.512 244.547 484.512 244.408C484.512 244.269 484.56 244.152 484.656 244.056C484.752 243.96 484.869 243.912 485.008 243.912C485.141 243.912 485.253 243.96 485.344 244.056C485.44 244.152 485.488 244.269 485.488 244.408C485.488 244.547 485.44 244.664 485.344 244.76C485.253 244.856 485.141 244.904 485.008 244.904ZM485.36 245.616V250H484.632V245.616H485.36ZM488.736 245.536C489.27 245.536 489.702 245.699 490.032 246.024C490.363 246.344 490.528 246.808 490.528 247.416V250H489.808V247.52C489.808 247.083 489.699 246.749 489.48 246.52C489.262 246.285 488.963 246.168 488.584 246.168C488.2 246.168 487.894 246.288 487.664 246.528C487.44 246.768 487.328 247.117 487.328 247.576V250H486.6V245.616H487.328V246.24C487.472 246.016 487.667 245.843 487.912 245.72C488.163 245.597 488.438 245.536 488.736 245.536ZM493.526 245.544C493.904 245.544 494.235 245.627 494.518 245.792C494.806 245.957 495.019 246.165 495.158 246.416V245.616H495.894V250.096C495.894 250.496 495.808 250.851 495.638 251.16C495.467 251.475 495.222 251.72 494.902 251.896C494.587 252.072 494.219 252.16 493.798 252.16C493.222 252.16 492.742 252.024 492.358 251.752C491.974 251.48 491.747 251.109 491.678 250.64H492.398C492.478 250.907 492.643 251.12 492.894 251.28C493.144 251.445 493.446 251.528 493.798 251.528C494.198 251.528 494.523 251.403 494.774 251.152C495.03 250.901 495.158 250.549 495.158 250.096V249.176C495.014 249.432 494.8 249.645 494.518 249.816C494.235 249.987 493.904 250.072 493.526 250.072C493.136 250.072 492.782 249.976 492.462 249.784C492.147 249.592 491.899 249.323 491.718 248.976C491.536 248.629 491.446 248.235 491.446 247.792C491.446 247.344 491.536 246.952 491.718 246.616C491.899 246.275 492.147 246.011 492.462 245.824C492.782 245.637 493.136 245.544 493.526 245.544ZM495.158 247.8C495.158 247.469 495.091 247.181 494.958 246.936C494.824 246.691 494.643 246.504 494.414 246.376C494.19 246.243 493.942 246.176 493.67 246.176C493.398 246.176 493.15 246.24 492.926 246.368C492.702 246.496 492.523 246.683 492.39 246.928C492.256 247.173 492.19 247.461 492.19 247.792C492.19 248.128 492.256 248.421 492.39 248.672C492.523 248.917 492.702 249.107 492.926 249.24C493.15 249.368 493.398 249.432 493.67 249.432C493.942 249.432 494.19 249.368 494.414 249.24C494.643 249.107 494.824 248.917 494.958 248.672C495.091 248.421 495.158 248.131 495.158 247.8Z" fill="#6C6C6C"/>
<path d="M314.344 145.016V146.88H316.376V147.48H314.344V149.4H316.616V150H313.616V144.416H316.616V145.016H314.344ZM317.446 147.208C317.446 146.664 317.568 146.176 317.814 145.744C318.059 145.307 318.392 144.965 318.814 144.72C319.24 144.475 319.712 144.352 320.23 144.352C320.838 144.352 321.368 144.499 321.822 144.792C322.275 145.085 322.606 145.501 322.814 146.04H321.942C321.787 145.704 321.563 145.445 321.27 145.264C320.982 145.083 320.635 144.992 320.23 144.992C319.84 144.992 319.491 145.083 319.182 145.264C318.872 145.445 318.63 145.704 318.454 146.04C318.278 146.371 318.19 146.76 318.19 147.208C318.19 147.651 318.278 148.04 318.454 148.376C318.63 148.707 318.872 148.963 319.182 149.144C319.491 149.325 319.84 149.416 320.23 149.416C320.635 149.416 320.982 149.328 321.27 149.152C321.563 148.971 321.787 148.712 321.942 148.376H322.814C322.606 148.909 322.275 149.323 321.822 149.616C321.368 149.904 320.838 150.048 320.23 150.048C319.712 150.048 319.24 149.928 318.814 149.688C318.392 149.443 318.059 149.104 317.814 148.672C317.568 148.24 317.446 147.752 317.446 147.208ZM325.665 150.056C325.297 150.056 324.967 149.992 324.673 149.864C324.385 149.731 324.159 149.549 323.993 149.32C323.828 149.085 323.743 148.816 323.737 148.512H324.513C324.54 148.773 324.647 148.995 324.833 149.176C325.025 149.352 325.303 149.44 325.665 149.44C326.012 149.44 326.284 149.355 326.481 149.184C326.684 149.008 326.785 148.784 326.785 148.512C326.785 148.299 326.727 148.125 326.609 147.992C326.492 147.859 326.345 147.757 326.169 147.688C325.993 147.619 325.756 147.544 325.457 147.464C325.089 147.368 324.793 147.272 324.569 147.176C324.351 147.08 324.161 146.931 324.001 146.728C323.847 146.52 323.769 146.243 323.769 145.896C323.769 145.592 323.847 145.323 324.001 145.088C324.156 144.853 324.372 144.672 324.649 144.544C324.932 144.416 325.255 144.352 325.617 144.352C326.14 144.352 326.567 144.483 326.897 144.744C327.233 145.005 327.423 145.352 327.465 145.784H326.665C326.639 145.571 326.527 145.384 326.329 145.224C326.132 145.059 325.871 144.976 325.545 144.976C325.241 144.976 324.993 145.056 324.801 145.216C324.609 145.371 324.513 145.589 324.513 145.872C324.513 146.075 324.569 146.24 324.681 146.368C324.799 146.496 324.94 146.595 325.105 146.664C325.276 146.728 325.513 146.803 325.817 146.888C326.185 146.989 326.481 147.091 326.705 147.192C326.929 147.288 327.121 147.44 327.281 147.648C327.441 147.851 327.521 148.128 327.521 148.48C327.521 148.752 327.449 149.008 327.305 149.248C327.161 149.488 326.948 149.683 326.665 149.832C326.383 149.981 326.049 150.056 325.665 150.056ZM330.413 144.88V144.216H331.917V150H331.181V144.88H330.413ZM333.168 147.048C333.168 146.131 333.317 145.416 333.616 144.904C333.915 144.387 334.437 144.128 335.184 144.128C335.925 144.128 336.445 144.387 336.744 144.904C337.043 145.416 337.192 146.131 337.192 147.048C337.192 147.981 337.043 148.707 336.744 149.224C336.445 149.741 335.925 150 335.184 150C334.437 150 333.915 149.741 333.616 149.224C333.317 148.707 333.168 147.981 333.168 147.048ZM336.472 147.048C336.472 146.584 336.44 146.192 336.376 145.872C336.317 145.547 336.192 145.285 336 145.088C335.813 144.891 335.541 144.792 335.184 144.792C334.821 144.792 334.544 144.891 334.352 145.088C334.165 145.285 334.04 145.547 333.976 145.872C333.917 146.192 333.888 146.584 333.888 147.048C333.888 147.528 333.917 147.931 333.976 148.256C334.04 148.581 334.165 148.843 334.352 149.04C334.544 149.237 334.821 149.336 335.184 149.336C335.541 149.336 335.813 149.237 336 149.04C336.192 148.843 336.317 148.581 336.376 148.256C336.44 147.931 336.472 147.528 336.472 147.048ZM337.999 144.88V144.216H339.503V150H338.767V144.88H337.999ZM346.047 146.76V147.376H342.855V146.76H346.047Z" fill="black"/>
<path d="M351.314 150.056C350.946 150.056 350.615 149.992 350.322 149.864C350.034 149.731 349.807 149.549 349.642 149.32C349.476 149.085 349.391 148.816 349.386 148.512H350.162C350.188 148.773 350.295 148.995 350.482 149.176C350.674 149.352 350.951 149.44 351.314 149.44C351.66 149.44 351.932 149.355 352.13 149.184C352.332 149.008 352.434 148.784 352.434 148.512C352.434 148.299 352.375 148.125 352.258 147.992C352.14 147.859 351.994 147.757 351.818 147.688C351.642 147.619 351.404 147.544 351.106 147.464C350.738 147.368 350.442 147.272 350.218 147.176C349.999 147.08 349.81 146.931 349.65 146.728C349.495 146.52 349.418 146.243 349.418 145.896C349.418 145.592 349.495 145.323 349.65 145.088C349.804 144.853 350.02 144.672 350.298 144.544C350.58 144.416 350.903 144.352 351.266 144.352C351.788 144.352 352.215 144.483 352.546 144.744C352.882 145.005 353.071 145.352 353.114 145.784H352.314C352.287 145.571 352.175 145.384 351.978 145.224C351.78 145.059 351.519 144.976 351.194 144.976C350.89 144.976 350.642 145.056 350.45 145.216C350.258 145.371 350.162 145.589 350.162 145.872C350.162 146.075 350.218 146.24 350.33 146.368C350.447 146.496 350.588 146.595 350.754 146.664C350.924 146.728 351.162 146.803 351.466 146.888C351.834 146.989 352.13 147.091 352.354 147.192C352.578 147.288 352.77 147.44 352.93 147.648C353.09 147.851 353.17 148.128 353.17 148.48C353.17 148.752 353.098 149.008 352.954 149.248C352.81 149.488 352.596 149.683 352.314 149.832C352.031 149.981 351.698 150.056 351.314 150.056ZM358.017 145.616L355.377 152.064H354.625L355.489 149.952L353.721 145.616H354.529L355.905 149.168L357.265 145.616H358.017ZM360.301 150.072C359.965 150.072 359.663 150.016 359.397 149.904C359.13 149.787 358.919 149.627 358.765 149.424C358.61 149.216 358.525 148.979 358.509 148.712H359.261C359.282 148.931 359.383 149.109 359.565 149.248C359.751 149.387 359.994 149.456 360.293 149.456C360.57 149.456 360.789 149.395 360.949 149.272C361.109 149.149 361.189 148.995 361.189 148.808C361.189 148.616 361.103 148.475 360.933 148.384C360.762 148.288 360.498 148.195 360.141 148.104C359.815 148.019 359.549 147.933 359.341 147.848C359.138 147.757 358.962 147.627 358.813 147.456C358.669 147.28 358.597 147.051 358.597 146.768C358.597 146.544 358.663 146.339 358.797 146.152C358.93 145.965 359.119 145.819 359.365 145.712C359.61 145.6 359.89 145.544 360.205 145.544C360.69 145.544 361.082 145.667 361.381 145.912C361.679 146.157 361.839 146.493 361.861 146.92H361.133C361.117 146.691 361.023 146.507 360.853 146.368C360.687 146.229 360.463 146.16 360.181 146.16C359.919 146.16 359.711 146.216 359.557 146.328C359.402 146.44 359.325 146.587 359.325 146.768C359.325 146.912 359.37 147.032 359.461 147.128C359.557 147.219 359.674 147.293 359.813 147.352C359.957 147.405 360.154 147.467 360.405 147.536C360.719 147.621 360.975 147.707 361.173 147.792C361.37 147.872 361.538 147.995 361.677 148.16C361.821 148.325 361.895 148.541 361.901 148.808C361.901 149.048 361.834 149.264 361.701 149.456C361.567 149.648 361.378 149.8 361.133 149.912C360.893 150.019 360.615 150.072 360.301 150.072ZM363.817 146.216V148.8C363.817 149.013 363.862 149.165 363.953 149.256C364.043 149.341 364.201 149.384 364.424 149.384H364.961V150H364.305C363.899 150 363.595 149.907 363.393 149.72C363.19 149.533 363.089 149.227 363.089 148.8V146.216H362.521V145.616H363.089V144.512H363.817V145.616H364.961V146.216H363.817ZM369.843 147.64C369.843 147.779 369.835 147.925 369.819 148.08H366.315C366.341 148.512 366.488 148.851 366.755 149.096C367.027 149.336 367.355 149.456 367.739 149.456C368.053 149.456 368.315 149.384 368.523 149.24C368.736 149.091 368.885 148.893 368.971 148.648H369.755C369.637 149.069 369.403 149.413 369.051 149.68C368.699 149.941 368.261 150.072 367.739 150.072C367.323 150.072 366.949 149.979 366.619 149.792C366.293 149.605 366.037 149.341 365.851 149C365.664 148.653 365.571 148.253 365.571 147.8C365.571 147.347 365.661 146.949 365.843 146.608C366.024 146.267 366.277 146.005 366.603 145.824C366.933 145.637 367.312 145.544 367.739 145.544C368.155 145.544 368.523 145.635 368.843 145.816C369.163 145.997 369.408 146.248 369.579 146.568C369.755 146.883 369.843 147.24 369.843 147.64ZM369.091 147.488C369.091 147.211 369.029 146.973 368.907 146.776C368.784 146.573 368.616 146.421 368.403 146.32C368.195 146.213 367.963 146.16 367.707 146.16C367.339 146.16 367.024 146.277 366.763 146.512C366.507 146.747 366.36 147.072 366.323 147.488H369.091ZM376.076 145.536C376.417 145.536 376.721 145.608 376.988 145.752C377.254 145.891 377.465 146.101 377.62 146.384C377.774 146.667 377.852 147.011 377.852 147.416V150H377.132V147.52C377.132 147.083 377.022 146.749 376.804 146.52C376.59 146.285 376.3 146.168 375.932 146.168C375.553 146.168 375.252 146.291 375.028 146.536C374.804 146.776 374.692 147.125 374.692 147.584V150H373.972V147.52C373.972 147.083 373.862 146.749 373.644 146.52C373.43 146.285 373.14 146.168 372.772 146.168C372.393 146.168 372.092 146.291 371.868 146.536C371.644 146.776 371.532 147.125 371.532 147.584V150H370.804V145.616H371.532V146.248C371.676 146.019 371.868 145.843 372.108 145.72C372.353 145.597 372.622 145.536 372.916 145.536C373.284 145.536 373.609 145.619 373.892 145.784C374.174 145.949 374.385 146.192 374.524 146.512C374.646 146.203 374.849 145.963 375.132 145.792C375.414 145.621 375.729 145.536 376.076 145.536ZM382.914 144.424C383.523 144.424 384.048 144.539 384.491 144.768C384.939 144.992 385.28 145.315 385.515 145.736C385.755 146.157 385.875 146.653 385.875 147.224C385.875 147.795 385.755 148.291 385.515 148.712C385.28 149.128 384.939 149.448 384.491 149.672C384.048 149.891 383.523 150 382.914 150H381.179V144.424H382.914ZM382.914 149.4C383.635 149.4 384.184 149.211 384.562 148.832C384.941 148.448 385.131 147.912 385.131 147.224C385.131 146.531 384.939 145.989 384.555 145.6C384.176 145.211 383.629 145.016 382.914 145.016H381.907V149.4H382.914ZM390.835 147.64C390.835 147.779 390.827 147.925 390.811 148.08H387.307C387.333 148.512 387.48 148.851 387.747 149.096C388.019 149.336 388.347 149.456 388.731 149.456C389.045 149.456 389.307 149.384 389.515 149.24C389.728 149.091 389.877 148.893 389.963 148.648H390.747C390.629 149.069 390.395 149.413 390.043 149.68C389.691 149.941 389.253 150.072 388.731 150.072C388.315 150.072 387.941 149.979 387.611 149.792C387.285 149.605 387.029 149.341 386.843 149C386.656 148.653 386.563 148.253 386.563 147.8C386.563 147.347 386.653 146.949 386.835 146.608C387.016 146.267 387.269 146.005 387.595 145.824C387.925 145.637 388.304 145.544 388.731 145.544C389.147 145.544 389.515 145.635 389.835 145.816C390.155 145.997 390.4 146.248 390.571 146.568C390.747 146.883 390.835 147.24 390.835 147.64ZM390.083 147.488C390.083 147.211 390.021 146.973 389.899 146.776C389.776 146.573 389.608 146.421 389.395 146.32C389.187 146.213 388.955 146.16 388.699 146.16C388.331 146.16 388.016 146.277 387.755 146.512C387.499 146.747 387.352 147.072 387.315 147.488H390.083ZM393.348 150.072C393.012 150.072 392.71 150.016 392.444 149.904C392.177 149.787 391.966 149.627 391.812 149.424C391.657 149.216 391.572 148.979 391.556 148.712H392.308C392.329 148.931 392.43 149.109 392.612 149.248C392.798 149.387 393.041 149.456 393.34 149.456C393.617 149.456 393.836 149.395 393.996 149.272C394.156 149.149 394.236 148.995 394.236 148.808C394.236 148.616 394.15 148.475 393.98 148.384C393.809 148.288 393.545 148.195 393.188 148.104C392.862 148.019 392.596 147.933 392.388 147.848C392.185 147.757 392.009 147.627 391.86 147.456C391.716 147.28 391.644 147.051 391.644 146.768C391.644 146.544 391.71 146.339 391.844 146.152C391.977 145.965 392.166 145.819 392.412 145.712C392.657 145.6 392.937 145.544 393.252 145.544C393.737 145.544 394.129 145.667 394.428 145.912C394.726 146.157 394.886 146.493 394.908 146.92H394.18C394.164 146.691 394.07 146.507 393.9 146.368C393.734 146.229 393.51 146.16 393.228 146.16C392.966 146.16 392.758 146.216 392.604 146.328C392.449 146.44 392.372 146.587 392.372 146.768C392.372 146.912 392.417 147.032 392.508 147.128C392.604 147.219 392.721 147.293 392.86 147.352C393.004 147.405 393.201 147.467 393.452 147.536C393.766 147.621 394.022 147.707 394.22 147.792C394.417 147.872 394.585 147.995 394.724 148.16C394.868 148.325 394.942 148.541 394.948 148.808C394.948 149.048 394.881 149.264 394.748 149.456C394.614 149.648 394.425 149.8 394.18 149.912C393.94 150.019 393.662 150.072 393.348 150.072ZM396.351 144.904C396.213 144.904 396.095 144.856 395.999 144.76C395.903 144.664 395.855 144.547 395.855 144.408C395.855 144.269 395.903 144.152 395.999 144.056C396.095 143.96 396.213 143.912 396.351 143.912C396.485 143.912 396.597 143.96 396.687 144.056C396.783 144.152 396.831 144.269 396.831 144.408C396.831 144.547 396.783 144.664 396.687 144.76C396.597 144.856 396.485 144.904 396.351 144.904ZM396.703 145.616V150H395.975V145.616H396.703ZM399.752 145.544C400.131 145.544 400.461 145.627 400.744 145.792C401.032 145.957 401.245 146.165 401.384 146.416V145.616H402.12V150.096C402.12 150.496 402.035 150.851 401.864 151.16C401.693 151.475 401.448 151.72 401.128 151.896C400.813 152.072 400.445 152.16 400.024 152.16C399.448 152.16 398.968 152.024 398.584 151.752C398.2 151.48 397.973 151.109 397.904 150.64H398.624C398.704 150.907 398.869 151.12 399.12 151.28C399.371 151.445 399.672 151.528 400.024 151.528C400.424 151.528 400.749 151.403 401 151.152C401.256 150.901 401.384 150.549 401.384 150.096V149.176C401.24 149.432 401.027 149.645 400.744 149.816C400.461 149.987 400.131 150.072 399.752 150.072C399.363 150.072 399.008 149.976 398.688 149.784C398.373 149.592 398.125 149.323 397.944 148.976C397.763 148.629 397.672 148.235 397.672 147.792C397.672 147.344 397.763 146.952 397.944 146.616C398.125 146.275 398.373 146.011 398.688 145.824C399.008 145.637 399.363 145.544 399.752 145.544ZM401.384 147.8C401.384 147.469 401.317 147.181 401.184 146.936C401.051 146.691 400.869 146.504 400.64 146.376C400.416 146.243 400.168 146.176 399.896 146.176C399.624 146.176 399.376 146.24 399.152 146.368C398.928 146.496 398.749 146.683 398.616 146.928C398.483 147.173 398.416 147.461 398.416 147.792C398.416 148.128 398.483 148.421 398.616 148.672C398.749 148.917 398.928 149.107 399.152 149.24C399.376 149.368 399.624 149.432 399.896 149.432C400.168 149.432 400.416 149.368 400.64 149.24C400.869 149.107 401.051 148.917 401.184 148.672C401.317 148.421 401.384 148.131 401.384 147.8ZM405.486 145.536C406.02 145.536 406.452 145.699 406.782 146.024C407.113 146.344 407.278 146.808 407.278 147.416V150H406.558V147.52C406.558 147.083 406.449 146.749 406.23 146.52C406.012 146.285 405.713 146.168 405.334 146.168C404.95 146.168 404.644 146.288 404.414 146.528C404.19 146.768 404.078 147.117 404.078 147.576V150H403.35V145.616H404.078V146.24C404.222 146.016 404.417 145.843 404.662 145.72C404.913 145.597 405.188 145.536 405.486 145.536Z" fill="#6C6C6C"/>
<path d="M187.344 233.016V234.88H189.376V235.48H187.344V237.4H189.616V238H186.616V232.416H189.616V233.016H187.344ZM190.446 235.208C190.446 234.664 190.568 234.176 190.814 233.744C191.059 233.307 191.392 232.965 191.814 232.72C192.24 232.475 192.712 232.352 193.23 232.352C193.838 232.352 194.368 232.499 194.822 232.792C195.275 233.085 195.606 233.501 195.814 234.04H194.942C194.787 233.704 194.563 233.445 194.27 233.264C193.982 233.083 193.635 232.992 193.23 232.992C192.84 232.992 192.491 233.083 192.182 233.264C191.872 233.445 191.63 233.704 191.454 234.04C191.278 234.371 191.19 234.76 191.19 235.208C191.19 235.651 191.278 236.04 191.454 236.376C191.63 236.707 191.872 236.963 192.182 237.144C192.491 237.325 192.84 237.416 193.23 237.416C193.635 237.416 193.982 237.328 194.27 237.152C194.563 236.971 194.787 236.712 194.942 236.376H195.814C195.606 236.909 195.275 237.323 194.822 237.616C194.368 237.904 193.838 238.048 193.23 238.048C192.712 238.048 192.24 237.928 191.814 237.688C191.392 237.443 191.059 237.104 190.814 236.672C190.568 236.24 190.446 235.752 190.446 235.208ZM198.665 238.056C198.297 238.056 197.967 237.992 197.673 237.864C197.385 237.731 197.159 237.549 196.993 237.32C196.828 237.085 196.743 236.816 196.737 236.512H197.513C197.54 236.773 197.647 236.995 197.833 237.176C198.025 237.352 198.303 237.44 198.665 237.44C199.012 237.44 199.284 237.355 199.481 237.184C199.684 237.008 199.785 236.784 199.785 236.512C199.785 236.299 199.727 236.125 199.609 235.992C199.492 235.859 199.345 235.757 199.169 235.688C198.993 235.619 198.756 235.544 198.457 235.464C198.089 235.368 197.793 235.272 197.569 235.176C197.351 235.08 197.161 234.931 197.001 234.728C196.847 234.52 196.769 234.243 196.769 233.896C196.769 233.592 196.847 233.323 197.001 233.088C197.156 232.853 197.372 232.672 197.649 232.544C197.932 232.416 198.255 232.352 198.617 232.352C199.14 232.352 199.567 232.483 199.897 232.744C200.233 233.005 200.423 233.352 200.465 233.784H199.665C199.639 233.571 199.527 233.384 199.329 233.224C199.132 233.059 198.871 232.976 198.545 232.976C198.241 232.976 197.993 233.056 197.801 233.216C197.609 233.371 197.513 233.589 197.513 233.872C197.513 234.075 197.569 234.24 197.681 234.368C197.799 234.496 197.94 234.595 198.105 234.664C198.276 234.728 198.513 234.803 198.817 234.888C199.185 234.989 199.481 235.091 199.705 235.192C199.929 235.288 200.121 235.44 200.281 235.648C200.441 235.851 200.521 236.128 200.521 236.48C200.521 236.752 200.449 237.008 200.305 237.248C200.161 237.488 199.948 237.683 199.665 237.832C199.383 237.981 199.049 238.056 198.665 238.056ZM204.541 236.448C204.595 236.752 204.717 236.987 204.909 237.152C205.107 237.317 205.371 237.4 205.701 237.4C206.144 237.4 206.469 237.227 206.677 236.88C206.891 236.533 206.992 235.949 206.981 235.128C206.869 235.368 206.683 235.557 206.421 235.696C206.16 235.829 205.869 235.896 205.549 235.896C205.192 235.896 204.872 235.824 204.589 235.68C204.312 235.531 204.093 235.315 203.933 235.032C203.773 234.749 203.693 234.408 203.693 234.008C203.693 233.437 203.859 232.979 204.189 232.632C204.52 232.28 204.989 232.104 205.597 232.104C206.344 232.104 206.867 232.347 207.165 232.832C207.469 233.317 207.621 234.04 207.621 235C207.621 235.672 207.56 236.227 207.437 236.664C207.32 237.101 207.117 237.435 206.829 237.664C206.547 237.893 206.157 238.008 205.661 238.008C205.117 238.008 204.693 237.861 204.389 237.568C204.085 237.275 203.912 236.901 203.869 236.448H204.541ZM205.669 235.28C206.027 235.28 206.32 235.171 206.549 234.952C206.779 234.728 206.893 234.427 206.893 234.048C206.893 233.648 206.781 233.325 206.557 233.08C206.333 232.835 206.019 232.712 205.613 232.712C205.24 232.712 204.941 232.829 204.717 233.064C204.499 233.299 204.389 233.608 204.389 233.992C204.389 234.381 204.499 234.693 204.717 234.928C204.936 235.163 205.253 235.28 205.669 235.28ZM209.58 236.448C209.634 236.752 209.756 236.987 209.948 237.152C210.146 237.317 210.41 237.4 210.74 237.4C211.183 237.4 211.508 237.227 211.716 236.88C211.93 236.533 212.031 235.949 212.02 235.128C211.908 235.368 211.722 235.557 211.46 235.696C211.199 235.829 210.908 235.896 210.588 235.896C210.231 235.896 209.911 235.824 209.628 235.68C209.351 235.531 209.132 235.315 208.972 235.032C208.812 234.749 208.732 234.408 208.732 234.008C208.732 233.437 208.898 232.979 209.228 232.632C209.559 232.28 210.028 232.104 210.636 232.104C211.383 232.104 211.906 232.347 212.204 232.832C212.508 233.317 212.66 234.04 212.66 235C212.66 235.672 212.599 236.227 212.476 236.664C212.359 237.101 212.156 237.435 211.868 237.664C211.586 237.893 211.196 238.008 210.7 238.008C210.156 238.008 209.732 237.861 209.428 237.568C209.124 237.275 208.951 236.901 208.908 236.448H209.58ZM210.708 235.28C211.066 235.28 211.359 235.171 211.588 234.952C211.818 234.728 211.932 234.427 211.932 234.048C211.932 233.648 211.82 233.325 211.596 233.08C211.372 232.835 211.058 232.712 210.652 232.712C210.279 232.712 209.98 232.829 209.756 233.064C209.538 233.299 209.428 233.608 209.428 233.992C209.428 234.381 209.538 234.693 209.756 234.928C209.975 235.163 210.292 235.28 210.708 235.28ZM218.976 234.76V235.376H215.784V234.76H218.976Z" fill="black"/>
<path d="M224.211 232.424C224.819 232.424 225.345 232.539 225.787 232.768C226.235 232.992 226.577 233.315 226.811 233.736C227.051 234.157 227.171 234.653 227.171 235.224C227.171 235.795 227.051 236.291 226.811 236.712C226.577 237.128 226.235 237.448 225.787 237.672C225.345 237.891 224.819 238 224.211 238H222.475V232.424H224.211ZM224.211 237.4C224.931 237.4 225.481 237.211 225.859 236.832C226.238 236.448 226.427 235.912 226.427 235.224C226.427 234.531 226.235 233.989 225.851 233.6C225.473 233.211 224.926 233.016 224.211 233.016H223.203V237.4H224.211ZM227.86 235.792C227.86 235.344 227.95 234.952 228.132 234.616C228.313 234.275 228.561 234.011 228.876 233.824C229.196 233.637 229.55 233.544 229.94 233.544C230.324 233.544 230.657 233.627 230.94 233.792C231.222 233.957 231.433 234.165 231.572 234.416V233.616H232.308V238H231.572V237.184C231.428 237.44 231.212 237.653 230.924 237.824C230.641 237.989 230.31 238.072 229.932 238.072C229.542 238.072 229.19 237.976 228.876 237.784C228.561 237.592 228.313 237.323 228.132 236.976C227.95 236.629 227.86 236.235 227.86 235.792ZM231.572 235.8C231.572 235.469 231.505 235.181 231.372 234.936C231.238 234.691 231.057 234.504 230.828 234.376C230.604 234.243 230.356 234.176 230.084 234.176C229.812 234.176 229.564 234.24 229.34 234.368C229.116 234.496 228.937 234.683 228.804 234.928C228.67 235.173 228.604 235.461 228.604 235.792C228.604 236.128 228.67 236.421 228.804 236.672C228.937 236.917 229.116 237.107 229.34 237.24C229.564 237.368 229.812 237.432 230.084 237.432C230.356 237.432 230.604 237.368 230.828 237.24C231.057 237.107 231.238 236.917 231.372 236.672C231.505 236.421 231.572 236.131 231.572 235.8ZM234.426 234.216V236.8C234.426 237.013 234.471 237.165 234.562 237.256C234.653 237.341 234.81 237.384 235.034 237.384H235.57V238H234.914C234.509 238 234.205 237.907 234.002 237.72C233.799 237.533 233.698 237.227 233.698 236.8V234.216H233.13V233.616H233.698V232.512H234.426V233.616H235.57V234.216H234.426ZM236.18 235.792C236.18 235.344 236.271 234.952 236.452 234.616C236.633 234.275 236.881 234.011 237.196 233.824C237.516 233.637 237.871 233.544 238.26 233.544C238.644 233.544 238.977 233.627 239.26 233.792C239.543 233.957 239.753 234.165 239.892 234.416V233.616H240.628V238H239.892V237.184C239.748 237.44 239.532 237.653 239.244 237.824C238.961 237.989 238.631 238.072 238.252 238.072C237.863 238.072 237.511 237.976 237.196 237.784C236.881 237.592 236.633 237.323 236.452 236.976C236.271 236.629 236.18 236.235 236.18 235.792ZM239.892 235.8C239.892 235.469 239.825 235.181 239.692 234.936C239.559 234.691 239.377 234.504 239.148 234.376C238.924 234.243 238.676 234.176 238.404 234.176C238.132 234.176 237.884 234.24 237.66 234.368C237.436 234.496 237.257 234.683 237.124 234.928C236.991 235.173 236.924 235.461 236.924 235.792C236.924 236.128 236.991 236.421 237.124 236.672C237.257 236.917 237.436 237.107 237.66 237.24C237.884 237.368 238.132 237.432 238.404 237.432C238.676 237.432 238.924 237.368 239.148 237.24C239.377 237.107 239.559 236.917 239.692 236.672C239.825 236.421 239.892 236.131 239.892 235.8ZM245.759 238.056C245.391 238.056 245.06 237.992 244.767 237.864C244.479 237.731 244.252 237.549 244.087 237.32C243.922 237.085 243.836 236.816 243.831 236.512H244.607C244.634 236.773 244.74 236.995 244.927 237.176C245.119 237.352 245.396 237.44 245.759 237.44C246.106 237.44 246.378 237.355 246.575 237.184C246.778 237.008 246.879 236.784 246.879 236.512C246.879 236.299 246.82 236.125 246.703 235.992C246.586 235.859 246.439 235.757 246.263 235.688C246.087 235.619 245.85 235.544 245.551 235.464C245.183 235.368 244.887 235.272 244.663 235.176C244.444 235.08 244.255 234.931 244.095 234.728C243.94 234.52 243.863 234.243 243.863 233.896C243.863 233.592 243.94 233.323 244.095 233.088C244.25 232.853 244.466 232.672 244.743 232.544C245.026 232.416 245.348 232.352 245.711 232.352C246.234 232.352 246.66 232.483 246.991 232.744C247.327 233.005 247.516 233.352 247.559 233.784H246.759C246.732 233.571 246.62 233.384 246.423 233.224C246.226 233.059 245.964 232.976 245.639 232.976C245.335 232.976 245.087 233.056 244.895 233.216C244.703 233.371 244.607 233.589 244.607 233.872C244.607 234.075 244.663 234.24 244.775 234.368C244.892 234.496 245.034 234.595 245.199 234.664C245.37 234.728 245.607 234.803 245.911 234.888C246.279 234.989 246.575 235.091 246.799 235.192C247.023 235.288 247.215 235.44 247.375 235.648C247.535 235.851 247.615 236.128 247.615 236.48C247.615 236.752 247.543 237.008 247.399 237.248C247.255 237.488 247.042 237.683 246.759 237.832C246.476 237.981 246.143 238.056 245.759 238.056ZM249.574 234.216V236.8C249.574 237.013 249.62 237.165 249.71 237.256C249.801 237.341 249.958 237.384 250.182 237.384H250.718V238H250.062C249.657 238 249.353 237.907 249.15 237.72C248.948 237.533 248.846 237.227 248.846 236.8V234.216H248.278V233.616H248.846V232.512H249.574V233.616H250.718V234.216H249.574ZM252.328 234.328C252.456 234.077 252.638 233.883 252.872 233.744C253.112 233.605 253.403 233.536 253.744 233.536V234.288H253.552C252.736 234.288 252.328 234.731 252.328 235.616V238H251.6V233.616H252.328V234.328ZM258.473 233.616V238H257.745V237.352C257.606 237.576 257.411 237.752 257.161 237.88C256.915 238.003 256.643 238.064 256.345 238.064C256.003 238.064 255.697 237.995 255.425 237.856C255.153 237.712 254.937 237.499 254.777 237.216C254.622 236.933 254.545 236.589 254.545 236.184V233.616H255.265V236.088C255.265 236.52 255.374 236.853 255.593 237.088C255.811 237.317 256.11 237.432 256.489 237.432C256.878 237.432 257.185 237.312 257.409 237.072C257.633 236.832 257.745 236.483 257.745 236.024V233.616H258.473ZM259.43 235.8C259.43 235.347 259.521 234.952 259.702 234.616C259.883 234.275 260.134 234.011 260.454 233.824C260.779 233.637 261.15 233.544 261.566 233.544C262.105 233.544 262.547 233.675 262.894 233.936C263.246 234.197 263.478 234.56 263.59 235.024H262.806C262.731 234.757 262.585 234.547 262.366 234.392C262.153 234.237 261.886 234.16 261.566 234.16C261.15 234.16 260.814 234.304 260.558 234.592C260.302 234.875 260.174 235.277 260.174 235.8C260.174 236.328 260.302 236.736 260.558 237.024C260.814 237.312 261.15 237.456 261.566 237.456C261.886 237.456 262.153 237.381 262.366 237.232C262.579 237.083 262.726 236.869 262.806 236.592H263.59C263.473 237.04 263.238 237.4 262.886 237.672C262.534 237.939 262.094 238.072 261.566 238.072C261.15 238.072 260.779 237.979 260.454 237.792C260.134 237.605 259.883 237.341 259.702 237C259.521 236.659 259.43 236.259 259.43 235.8ZM265.449 234.216V236.8C265.449 237.013 265.495 237.165 265.585 237.256C265.676 237.341 265.833 237.384 266.057 237.384H266.593V238H265.937C265.532 238 265.228 237.907 265.025 237.72C264.823 237.533 264.721 237.227 264.721 236.8V234.216H264.153V233.616H264.721V232.512H265.449V233.616H266.593V234.216H265.449ZM271.363 233.616V238H270.635V237.352C270.497 237.576 270.302 237.752 270.051 237.88C269.806 238.003 269.534 238.064 269.235 238.064C268.894 238.064 268.587 237.995 268.315 237.856C268.043 237.712 267.827 237.499 267.667 237.216C267.513 236.933 267.435 236.589 267.435 236.184V233.616H268.155V236.088C268.155 236.52 268.265 236.853 268.483 237.088C268.702 237.317 269.001 237.432 269.379 237.432C269.769 237.432 270.075 237.312 270.299 237.072C270.523 236.832 270.635 236.483 270.635 236.024V233.616H271.363ZM273.321 234.328C273.449 234.077 273.63 233.883 273.865 233.744C274.105 233.605 274.395 233.536 274.737 233.536V234.288H274.545C273.729 234.288 273.321 234.731 273.321 235.616V238H272.593V233.616H273.321V234.328ZM279.577 235.64C279.577 235.779 279.569 235.925 279.553 236.08H276.049C276.076 236.512 276.222 236.851 276.489 237.096C276.761 237.336 277.089 237.456 277.473 237.456C277.788 237.456 278.049 237.384 278.257 237.24C278.47 237.091 278.62 236.893 278.705 236.648H279.489C279.372 237.069 279.137 237.413 278.785 237.68C278.433 237.941 277.996 238.072 277.473 238.072C277.057 238.072 276.684 237.979 276.353 237.792C276.028 237.605 275.772 237.341 275.585 237C275.398 236.653 275.305 236.253 275.305 235.8C275.305 235.347 275.396 234.949 275.577 234.608C275.758 234.267 276.012 234.005 276.337 233.824C276.668 233.637 277.046 233.544 277.473 233.544C277.889 233.544 278.257 233.635 278.577 233.816C278.897 233.997 279.142 234.248 279.313 234.568C279.489 234.883 279.577 235.24 279.577 235.64ZM278.825 235.488C278.825 235.211 278.764 234.973 278.641 234.776C278.518 234.573 278.35 234.421 278.137 234.32C277.929 234.213 277.697 234.16 277.441 234.16C277.073 234.16 276.758 234.277 276.497 234.512C276.241 234.747 276.094 235.072 276.057 235.488H278.825ZM282.09 238.072C281.754 238.072 281.453 238.016 281.186 237.904C280.919 237.787 280.709 237.627 280.554 237.424C280.399 237.216 280.314 236.979 280.298 236.712H281.05C281.071 236.931 281.173 237.109 281.354 237.248C281.541 237.387 281.783 237.456 282.082 237.456C282.359 237.456 282.578 237.395 282.738 237.272C282.898 237.149 282.978 236.995 282.978 236.808C282.978 236.616 282.893 236.475 282.722 236.384C282.551 236.288 282.287 236.195 281.93 236.104C281.605 236.019 281.338 235.933 281.13 235.848C280.927 235.757 280.751 235.627 280.602 235.456C280.458 235.28 280.386 235.051 280.386 234.768C280.386 234.544 280.453 234.339 280.586 234.152C280.719 233.965 280.909 233.819 281.154 233.712C281.399 233.6 281.679 233.544 281.994 233.544C282.479 233.544 282.871 233.667 283.17 233.912C283.469 234.157 283.629 234.493 283.65 234.92H282.922C282.906 234.691 282.813 234.507 282.642 234.368C282.477 234.229 282.253 234.16 281.97 234.16C281.709 234.16 281.501 234.216 281.346 234.328C281.191 234.44 281.114 234.587 281.114 234.768C281.114 234.912 281.159 235.032 281.25 235.128C281.346 235.219 281.463 235.293 281.602 235.352C281.746 235.405 281.943 235.467 282.194 235.536C282.509 235.621 282.765 235.707 282.962 235.792C283.159 235.872 283.327 235.995 283.466 236.16C283.61 236.325 283.685 236.541 283.69 236.808C283.69 237.048 283.623 237.264 283.49 237.456C283.357 237.648 283.167 237.8 282.922 237.912C282.682 238.019 282.405 238.072 282.09 238.072ZM186.344 247.792C186.344 247.344 186.435 246.952 186.616 246.616C186.797 246.275 187.045 246.011 187.36 245.824C187.68 245.637 188.035 245.544 188.424 245.544C188.808 245.544 189.141 245.627 189.424 245.792C189.707 245.957 189.917 246.165 190.056 246.416V245.616H190.792V250H190.056V249.184C189.912 249.44 189.696 249.653 189.408 249.824C189.125 249.989 188.795 250.072 188.416 250.072C188.027 250.072 187.675 249.976 187.36 249.784C187.045 249.592 186.797 249.323 186.616 248.976C186.435 248.629 186.344 248.235 186.344 247.792ZM190.056 247.8C190.056 247.469 189.989 247.181 189.856 246.936C189.723 246.691 189.541 246.504 189.312 246.376C189.088 246.243 188.84 246.176 188.568 246.176C188.296 246.176 188.048 246.24 187.824 246.368C187.6 246.496 187.421 246.683 187.288 246.928C187.155 247.173 187.088 247.461 187.088 247.792C187.088 248.128 187.155 248.421 187.288 248.672C187.421 248.917 187.6 249.107 187.824 249.24C188.048 249.368 188.296 249.432 188.568 249.432C188.84 249.432 189.088 249.368 189.312 249.24C189.541 249.107 189.723 248.917 189.856 248.672C189.989 248.421 190.056 248.131 190.056 247.8ZM194.158 245.536C194.692 245.536 195.124 245.699 195.454 246.024C195.785 246.344 195.95 246.808 195.95 247.416V250H195.23V247.52C195.23 247.083 195.121 246.749 194.902 246.52C194.684 246.285 194.385 246.168 194.006 246.168C193.622 246.168 193.316 246.288 193.086 246.528C192.862 246.768 192.75 247.117 192.75 247.576V250H192.022V245.616H192.75V246.24C192.894 246.016 193.089 245.843 193.334 245.72C193.585 245.597 193.86 245.536 194.158 245.536ZM196.867 247.792C196.867 247.344 196.958 246.952 197.139 246.616C197.321 246.275 197.569 246.011 197.883 245.824C198.203 245.637 198.561 245.544 198.955 245.544C199.297 245.544 199.614 245.624 199.907 245.784C200.201 245.939 200.425 246.144 200.579 246.4V244.08H201.315V250H200.579V249.176C200.435 249.437 200.222 249.653 199.939 249.824C199.657 249.989 199.326 250.072 198.947 250.072C198.558 250.072 198.203 249.976 197.883 249.784C197.569 249.592 197.321 249.323 197.139 248.976C196.958 248.629 196.867 248.235 196.867 247.792ZM200.579 247.8C200.579 247.469 200.513 247.181 200.379 246.936C200.246 246.691 200.065 246.504 199.835 246.376C199.611 246.243 199.363 246.176 199.091 246.176C198.819 246.176 198.571 246.24 198.347 246.368C198.123 246.496 197.945 246.683 197.811 246.928C197.678 247.173 197.611 247.461 197.611 247.792C197.611 248.128 197.678 248.421 197.811 248.672C197.945 248.917 198.123 249.107 198.347 249.24C198.571 249.368 198.819 249.432 199.091 249.432C199.363 249.432 199.611 249.368 199.835 249.24C200.065 249.107 200.246 248.917 200.379 248.672C200.513 248.421 200.579 248.131 200.579 247.8ZM207.975 248.76H205.543L205.095 250H204.326L206.343 244.456H207.183L209.191 250H208.423L207.975 248.76ZM207.767 248.168L206.759 245.352L205.751 248.168H207.767ZM210.797 244.08V250H210.069V244.08H210.797ZM213.846 245.544C214.225 245.544 214.555 245.627 214.838 245.792C215.126 245.957 215.339 246.165 215.478 246.416V245.616H216.214V250.096C216.214 250.496 216.129 250.851 215.958 251.16C215.787 251.475 215.542 251.72 215.222 251.896C214.907 252.072 214.539 252.16 214.118 252.16C213.542 252.16 213.062 252.024 212.678 251.752C212.294 251.48 212.067 251.109 211.998 250.64H212.718C212.798 250.907 212.963 251.12 213.214 251.28C213.465 251.445 213.766 251.528 214.118 251.528C214.518 251.528 214.843 251.403 215.094 251.152C215.35 250.901 215.478 250.549 215.478 250.096V249.176C215.334 249.432 215.121 249.645 214.838 249.816C214.555 249.987 214.225 250.072 213.846 250.072C213.457 250.072 213.102 249.976 212.782 249.784C212.467 249.592 212.219 249.323 212.038 248.976C211.857 248.629 211.766 248.235 211.766 247.792C211.766 247.344 211.857 246.952 212.038 246.616C212.219 246.275 212.467 246.011 212.782 245.824C213.102 245.637 213.457 245.544 213.846 245.544ZM215.478 247.8C215.478 247.469 215.411 247.181 215.278 246.936C215.145 246.691 214.963 246.504 214.734 246.376C214.51 246.243 214.262 246.176 213.99 246.176C213.718 246.176 213.47 246.24 213.246 246.368C213.022 246.496 212.843 246.683 212.71 246.928C212.577 247.173 212.51 247.461 212.51 247.792C212.51 248.128 212.577 248.421 212.71 248.672C212.843 248.917 213.022 249.107 213.246 249.24C213.47 249.368 213.718 249.432 213.99 249.432C214.262 249.432 214.51 249.368 214.734 249.24C214.963 249.107 215.145 248.917 215.278 248.672C215.411 248.421 215.478 248.131 215.478 247.8ZM219.356 250.072C218.945 250.072 218.572 249.979 218.236 249.792C217.905 249.605 217.644 249.341 217.452 249C217.265 248.653 217.172 248.253 217.172 247.8C217.172 247.352 217.268 246.957 217.46 246.616C217.657 246.269 217.924 246.005 218.26 245.824C218.596 245.637 218.972 245.544 219.388 245.544C219.804 245.544 220.18 245.637 220.516 245.824C220.852 246.005 221.116 246.267 221.308 246.608C221.505 246.949 221.604 247.347 221.604 247.8C221.604 248.253 221.503 248.653 221.3 249C221.103 249.341 220.833 249.605 220.492 249.792C220.151 249.979 219.772 250.072 219.356 250.072ZM219.356 249.432C219.617 249.432 219.863 249.371 220.092 249.248C220.321 249.125 220.505 248.941 220.644 248.696C220.788 248.451 220.86 248.152 220.86 247.8C220.86 247.448 220.791 247.149 220.652 246.904C220.513 246.659 220.332 246.477 220.108 246.36C219.884 246.237 219.641 246.176 219.38 246.176C219.113 246.176 218.868 246.237 218.644 246.36C218.425 246.477 218.249 246.659 218.116 246.904C217.983 247.149 217.916 247.448 217.916 247.8C217.916 248.157 217.98 248.459 218.108 248.704C218.241 248.949 218.417 249.133 218.636 249.256C218.855 249.373 219.095 249.432 219.356 249.432ZM223.289 246.328C223.417 246.077 223.599 245.883 223.833 245.744C224.073 245.605 224.364 245.536 224.705 245.536V246.288H224.513C223.697 246.288 223.289 246.731 223.289 247.616V250H222.561V245.616H223.289V246.328ZM225.922 244.904C225.783 244.904 225.666 244.856 225.57 244.76C225.474 244.664 225.426 244.547 225.426 244.408C225.426 244.269 225.474 244.152 225.57 244.056C225.666 243.96 225.783 243.912 225.922 243.912C226.055 243.912 226.167 243.96 226.258 244.056C226.354 244.152 226.402 244.269 226.402 244.408C226.402 244.547 226.354 244.664 226.258 244.76C226.167 244.856 226.055 244.904 225.922 244.904ZM226.274 245.616V250H225.546V245.616H226.274ZM228.402 246.216V248.8C228.402 249.013 228.448 249.165 228.538 249.256C228.629 249.341 228.786 249.384 229.01 249.384H229.546V250H228.89C228.485 250 228.181 249.907 227.978 249.72C227.776 249.533 227.674 249.227 227.674 248.8V246.216H227.106V245.616H227.674V244.512H228.402V245.616H229.546V246.216H228.402ZM232.605 245.536C232.935 245.536 233.234 245.608 233.501 245.752C233.767 245.891 233.975 246.101 234.125 246.384C234.279 246.667 234.357 247.011 234.357 247.416V250H233.637V247.52C233.637 247.083 233.527 246.749 233.309 246.52C233.09 246.285 232.791 246.168 232.413 246.168C232.029 246.168 231.722 246.288 231.493 246.528C231.269 246.768 231.157 247.117 231.157 247.576V250H230.429V244.08H231.157V246.24C231.301 246.016 231.498 245.843 231.749 245.72C232.005 245.597 232.29 245.536 232.605 245.536ZM240.818 245.536C241.159 245.536 241.463 245.608 241.73 245.752C241.996 245.891 242.207 246.101 242.362 246.384C242.516 246.667 242.594 247.011 242.594 247.416V250H241.874V247.52C241.874 247.083 241.764 246.749 241.546 246.52C241.332 246.285 241.042 246.168 240.674 246.168C240.295 246.168 239.994 246.291 239.77 246.536C239.546 246.776 239.434 247.125 239.434 247.584V250H238.714V247.52C238.714 247.083 238.604 246.749 238.386 246.52C238.172 246.285 237.882 246.168 237.514 246.168C237.135 246.168 236.834 246.291 236.61 246.536C236.386 246.776 236.274 247.125 236.274 247.584V250H235.546V245.616H236.274V246.248C236.418 246.019 236.61 245.843 236.85 245.72C237.095 245.597 237.364 245.536 237.658 245.536C238.026 245.536 238.351 245.619 238.634 245.784C238.916 245.949 239.127 246.192 239.266 246.512C239.388 246.203 239.591 245.963 239.874 245.792C240.156 245.621 240.471 245.536 240.818 245.536ZM245.34 250.072C245.004 250.072 244.703 250.016 244.436 249.904C244.169 249.787 243.959 249.627 243.804 249.424C243.649 249.216 243.564 248.979 243.548 248.712H244.3C244.321 248.931 244.423 249.109 244.604 249.248C244.791 249.387 245.033 249.456 245.332 249.456C245.609 249.456 245.828 249.395 245.988 249.272C246.148 249.149 246.228 248.995 246.228 248.808C246.228 248.616 246.143 248.475 245.972 248.384C245.801 248.288 245.537 248.195 245.18 248.104C244.855 248.019 244.588 247.933 244.38 247.848C244.177 247.757 244.001 247.627 243.852 247.456C243.708 247.28 243.636 247.051 243.636 246.768C243.636 246.544 243.703 246.339 243.836 246.152C243.969 245.965 244.159 245.819 244.404 245.712C244.649 245.6 244.929 245.544 245.244 245.544C245.729 245.544 246.121 245.667 246.42 245.912C246.719 246.157 246.879 246.493 246.9 246.92H246.172C246.156 246.691 246.063 246.507 245.892 246.368C245.727 246.229 245.503 246.16 245.22 246.16C244.959 246.16 244.751 246.216 244.596 246.328C244.441 246.44 244.364 246.587 244.364 246.768C244.364 246.912 244.409 247.032 244.5 247.128C244.596 247.219 244.713 247.293 244.852 247.352C244.996 247.405 245.193 247.467 245.444 247.536C245.759 247.621 246.015 247.707 246.212 247.792C246.409 247.872 246.577 247.995 246.716 248.16C246.86 248.325 246.935 248.541 246.94 248.808C246.94 249.048 246.873 249.264 246.74 249.456C246.607 249.648 246.417 249.8 246.172 249.912C245.932 250.019 245.655 250.072 245.34 250.072Z" fill="#6C6C6C"/>
</svg>
