<svg version="1.1" id="Layer_1" xmlns="http://www.w3.org/2000/svg" xmlns:xlink="http://www.w3.org/1999/xlink" x="0px" y="0px"
	 width="100%" viewBox="0 0 416 208" enable-background="new 0 0 416 208" xml:space="preserve">
<path fill="#171717" opacity="1.000000" stroke="black" 
	d="
M106.027405,140.036880 
	C103.206520,137.173370 102.961975,133.761185 104.464127,130.332718 
	C109.048355,119.869736 116.773018,112.724754 127.663528,109.114098 
	C129.761078,108.418671 131.974884,108.382362 134.092392,108.835075 
	C137.581528,109.581032 139.412796,113.721169 137.721954,116.708511 
	C137.215363,117.603577 136.549179,118.432053 135.417252,118.346336 
	C134.204697,118.254501 133.735916,117.310692 133.750015,116.230995 
	C133.804642,112.050591 131.585678,112.191620 128.476013,113.132843 
	C118.505333,116.150726 108.659340,126.622650 108.217758,134.987686 
	C110.500748,136.472473 112.020615,134.621338 113.422966,133.480438 
	C117.940323,129.805283 122.253731,125.880493 126.732040,122.155663 
	C128.065109,121.046875 129.735107,119.250290 131.477875,121.091759 
	C133.000732,122.700874 131.148361,124.095032 130.252914,125.397392 
	C128.935165,127.313934 127.462692,129.129120 126.225044,131.093887 
	C125.435715,132.346939 124.624786,133.916122 126.148987,135.144760 
	C127.397385,136.151093 128.731537,135.282425 129.828857,134.559402 
	C136.307510,130.290604 141.677444,124.907837 146.000168,118.452110 
	C147.571838,116.104935 149.312103,113.862518 151.090591,111.665512 
	C151.931885,110.626251 153.099899,109.606247 154.479462,110.828743 
	C155.765762,111.968575 155.102112,113.247543 154.300858,114.391029 
	C151.532257,118.342163 148.650284,122.218536 146.010422,126.253540 
	C144.311996,128.849579 142.510757,131.505814 142.576508,134.848038 
	C148.006912,135.794083 159.748535,125.487022 164.230286,116.030273 
	C164.180099,115.015755 163.475479,114.614738 162.636383,114.387634 
	C161.427567,114.060478 160.347321,113.584045 160.644516,112.062691 
	C160.883377,110.839920 162.016953,110.569756 162.981506,110.621399 
	C168.803482,110.933128 171.843521,107.303818 174.798981,102.996407 
	C177.805359,98.614792 181.396637,94.633522 184.749390,90.491173 
	C185.698090,89.319046 186.791840,87.830956 188.420197,89.106972 
	C190.062576,90.393990 188.828125,91.831497 187.930481,92.998680 
	C185.495285,96.165085 182.948654,99.246109 180.529282,102.424225 
	C179.057968,104.356941 177.033295,105.986557 176.683945,108.621643 
	C183.136993,111.226555 187.192932,110.215004 190.920609,105.165634 
	C195.766281,98.601830 200.580566,92.014107 205.501526,85.507141 
	C206.797806,83.793068 208.373474,82.271454 209.937576,80.784203 
	C211.412247,79.381966 213.132156,78.054108 215.277618,79.188904 
	C217.603561,80.419167 217.608017,82.789116 217.171036,84.927887 
	C215.877823,91.257378 212.789841,96.781792 208.811523,101.776131 
	C202.568527,109.613564 195.892090,116.993561 187.228973,122.354790 
	C183.102722,124.908356 181.324341,129.783691 182.048019,134.889603 
	C184.456833,135.419373 186.140228,133.910492 187.821777,132.651443 
	C194.123749,127.932899 199.448868,122.243027 204.224777,116.001717 
	C205.540237,114.282631 206.667892,111.678246 210.278961,113.901306 
	C207.233231,120.366684 200.907242,125.403885 200.470642,133.551727 
	C205.160141,133.224762 207.454468,130.170761 209.939392,127.671341 
	C213.222153,124.369392 216.166199,120.732353 219.294189,117.274025 
	C220.457535,115.987831 221.940140,114.764191 223.577591,116.168999 
	C225.034348,117.418762 223.854050,118.956894 223.148071,120.224487 
	C220.698303,124.623077 217.779510,128.803574 216.166061,134.838623 
	C225.499573,130.614456 229.225067,122.525223 234.102936,116.178871 
	C236.887024,116.053055 236.747589,118.519844 238.585281,119.598358 
	C241.065903,118.254738 243.704834,116.572144 246.544708,115.360558 
	C249.222305,114.218178 252.201431,112.516701 254.928711,115.151505 
	C257.705383,117.834007 255.823029,120.765579 254.828415,123.491798 
	C253.440033,127.297203 250.746307,130.651138 250.649429,135.210480 
	C254.499222,135.751999 256.795654,133.422287 259.005432,131.360016 
	C261.429688,129.097626 263.475647,126.432991 265.729156,123.982918 
	C266.558624,123.081070 267.636749,122.445015 268.830750,123.195251 
	C270.127319,124.009941 269.831421,125.260643 269.093445,126.242851 
	C265.377045,131.189377 261.487488,136.038254 255.697937,138.678650 
	C253.108810,139.859467 250.104156,140.416351 247.653503,138.310822 
	C244.956665,135.993805 246.314072,133.188248 247.171371,130.465515 
	C248.385330,126.610069 251.101700,123.264435 251.537277,118.717896 
	C247.687103,118.609909 245.169876,120.525772 242.681808,122.300774 
	C237.230789,126.189613 232.800507,131.216629 227.979385,135.806839 
	C225.906921,137.780029 223.947968,138.909790 220.589264,138.786743 
	C215.667114,138.606461 211.453903,141.205734 208.640045,145.691498 
	C205.822739,150.182800 203.372208,155.002304 198.925354,158.250320 
	C198.252945,158.741440 197.629395,159.328506 196.897461,159.703995 
	C193.817062,161.284332 190.366806,163.840652 187.497406,160.125641 
	C184.622162,156.403122 187.789429,153.654358 190.333786,151.233261 
	C194.707687,147.071274 200.053665,144.246155 204.975021,140.836014 
	C206.719788,139.627014 208.711868,138.608353 209.177460,135.739349 
	C205.926483,135.384689 203.924393,138.529755 200.890564,138.339233 
	C196.860840,138.086182 196.357117,135.132629 195.730133,132.152039 
	C182.037628,141.395233 181.722733,141.440750 175.997482,134.867523 
	C171.994873,136.667633 168.835007,140.222580 164.234634,141.017471 
	C159.395416,141.853638 156.835327,140.094498 155.071182,134.465744 
	C143.009735,142.097504 141.623474,142.155380 136.967239,134.998001 
	C133.812424,136.315643 131.435059,139.183304 127.899323,139.880219 
	C123.751045,140.697861 121.951210,137.803238 119.874863,134.864822 
	C115.374580,136.280014 112.103401,140.909866 106.392929,140.030258 
	C106.000488,140.004593 106.027405,140.036880 106.027405,140.036880 
M159.635727,134.546280 
	C160.858154,138.217010 163.835800,137.100052 165.764053,136.105774 
	C174.664505,131.516373 181.005234,124.637032 183.641769,114.767937 
	C175.208603,112.513107 169.187866,114.995224 165.295639,122.687180 
	C163.420746,126.392380 160.969879,129.806427 159.635727,134.546280 
M205.072968,99.580200 
	C208.048126,95.634750 211.452179,91.888573 211.225967,86.386154 
	C203.679825,93.883751 198.213760,102.791939 192.644104,111.679176 
	C197.923355,109.015869 201.088074,104.389442 205.072968,99.580200 
M198.536163,150.212433 
	C196.201981,151.950455 193.103882,152.917831 191.771484,157.330719 
	C195.781799,155.563705 198.936279,154.576263 198.536163,150.212433 
z"/>
<path fill="#171717" opacity="1.000000" stroke="black" 
	d="
M105.985977,139.989502 
	C106.229965,143.860428 103.906967,143.613510 101.448524,142.628189 
	C96.532990,140.658081 93.545570,136.559158 91.078979,132.207901 
	C87.799553,126.422737 84.996834,120.369644 81.866875,114.496918 
	C77.316902,105.959824 70.005920,105.564758 64.136909,113.628578 
	C58.655067,121.160439 53.851051,129.193420 47.660656,136.196533 
	C46.071232,137.994629 44.439671,141.925461 41.636848,139.439651 
	C39.305458,137.371933 42.695805,135.103363 44.162243,133.363617 
	C48.461918,128.262604 52.412975,122.921951 56.167728,117.414490 
	C58.153610,114.501610 58.341766,112.451164 55.244350,109.824341 
	C48.380314,104.003166 50.226696,96.328575 58.752163,93.475227 
	C61.532520,92.544678 64.365112,92.461876 67.142189,92.755806 
	C71.044876,93.168884 73.341621,91.475121 75.212616,88.275848 
	C78.488197,82.674858 81.993248,77.207497 85.433182,71.703545 
	C86.451912,70.073563 87.394890,67.446869 89.808083,68.951088 
	C91.915062,70.264435 90.106857,72.263512 89.233002,73.736710 
	C86.091805,79.032310 82.673653,84.170555 79.702652,89.557159 
	C78.315201,92.072685 74.335663,94.815331 77.463821,97.750160 
	C80.215546,100.331833 82.903999,96.726326 85.223106,95.210022 
	C95.530914,88.470436 105.677505,81.484886 115.941048,74.676697 
	C119.689857,72.189972 123.709618,70.152046 127.984550,68.703949 
	C129.359818,68.238083 131.144348,67.583725 131.773331,69.627792 
	C132.264191,71.222977 130.790024,71.920288 129.570663,72.487984 
	C113.918671,79.775017 100.578056,90.695747 86.192795,99.976357 
	C82.364532,102.446144 81.443756,104.947510 83.735535,109.032990 
	C87.397453,115.560966 90.677658,122.302452 94.150475,128.937317 
	C96.687828,133.784973 100.080559,137.775391 105.693771,139.921997 
	C106.027405,140.036880 106.000488,140.004593 105.985977,139.989502 
M55.744720,101.745804 
	C55.964321,104.788277 57.423225,106.795662 60.625366,106.729965 
	C64.498779,106.650482 65.340500,103.138268 66.944389,100.580070 
	C67.648315,99.457314 67.530876,98.100845 66.230431,97.674721 
	C63.314030,96.719086 60.379135,96.826050 57.847748,98.850891 
	C57.102638,99.446892 56.597763,100.343224 55.744720,101.745804 
z"/>
<path fill="#171717" opacity="1.000000" stroke="black" 
	d="
M307.255859,132.309998 
	C304.366150,134.303802 301.919128,136.393921 299.128998,137.806168 
	C293.852325,140.477020 290.499512,138.236176 290.994720,132.431274 
	C291.732239,123.786293 293.681183,115.395332 296.689636,107.232620 
	C299.505890,99.591438 302.158295,91.887970 304.746857,84.166336 
	C305.285095,82.560814 306.525696,80.496109 304.492432,79.142883 
	C302.254852,77.653641 300.725830,79.762764 299.330475,80.955215 
	C294.957153,84.692589 292.256134,89.697067 289.324341,94.550804 
	C288.090179,96.594032 287.322968,101.009476 284.310883,99.468941 
	C280.586273,97.563995 284.246399,94.486092 285.372131,92.359955 
	C289.210754,85.110092 293.789062,78.347298 301.012054,73.933723 
	C303.112122,72.650497 305.326233,70.954086 307.938049,72.373306 
	C310.562866,73.799576 310.348206,76.519241 310.303711,79.024178 
	C310.210358,84.284439 308.223206,89.082146 306.513947,93.929886 
	C303.033417,103.801521 298.864777,113.448456 296.832306,123.786644 
	C296.512909,125.411430 296.189392,127.064674 296.156616,128.710526 
	C296.086456,132.231277 297.697052,133.583221 300.728943,131.305481 
	C316.836914,119.204132 331.223053,105.539757 339.815155,86.836189 
	C341.906952,82.282761 343.055603,77.422447 343.647766,72.439926 
	C343.869659,70.573296 343.302856,67.714470 346.314514,68.192001 
	C348.855103,68.594849 348.429260,71.335968 348.171906,73.227951 
	C346.829346,83.098312 343.657898,92.431877 337.870300,100.513824 
	C329.310577,112.466827 319.133942,122.993507 307.255859,132.309998 
z"/>
<path fill="#171717" opacity="1.000000" stroke="black" 
	d="
M347.511292,108.196442 
	C349.818054,107.035706 351.808136,106.026001 353.831970,107.884529 
	C355.762756,109.657608 355.221893,111.748680 354.659912,113.906563 
	C353.688141,117.637840 352.367035,121.204056 350.256836,124.454422 
	C349.390839,125.788330 348.154083,127.016869 348.690399,129.137894 
	C353.889313,128.789825 355.971283,123.634995 359.890015,121.772186 
	C362.238403,123.829391 361.207550,125.406319 359.956238,126.801041 
	C356.290955,130.886414 352.171204,134.188141 346.192291,133.424606 
	C343.968658,133.140671 342.337921,134.130737 340.737396,135.375870 
	C338.483276,137.129410 336.022095,138.467834 333.295044,139.356995 
	C326.934235,141.430939 322.777435,138.187515 324.960968,131.964767 
	C327.477325,124.793457 330.400299,117.133774 339.986145,116.357002 
	C341.366028,116.245193 341.778992,114.986572 342.325562,113.987976 
	C343.542114,111.765236 345.008209,109.776947 347.511292,108.196442 
M334.688904,123.202827 
	C331.635956,126.645226 328.857758,130.215881 328.447510,135.283890 
	C333.629395,136.307480 337.000427,133.715271 339.381378,130.750610 
	C341.845673,127.682236 339.406494,124.030922 339.025452,120.729095 
	C336.877533,120.577850 336.170898,121.872742 334.688904,123.202827 
M346.906586,122.059822 
	C348.238678,119.169930 350.167847,116.462189 349.988708,112.106743 
	C346.126587,114.706047 344.605103,117.728859 344.347931,121.440918 
	C344.240112,122.996857 345.074005,123.578133 346.906586,122.059822 
z"/>
<path fill="#171717" opacity="1.000000" stroke="black" 
	d="
M160.609436,97.202637 
	C162.320801,96.055466 163.822098,95.084755 165.395920,96.529305 
	C166.532181,97.572220 165.856567,98.666939 165.032440,99.568176 
	C163.972610,100.727196 162.640961,101.604317 161.061325,101.022865 
	C159.136475,100.314339 159.265396,98.910942 160.609436,97.202637 
z"/>
</svg>