<svg version="1.1" id="Layer_1" xmlns="http://www.w3.org/2000/svg" xmlns:xlink="http://www.w3.org/1999/xlink" x="0px" y="0px"
	 width="100%" viewBox="0 0 91 898" enable-background="new 0 0 91 898" xml:space="preserve">
<path fill="#7B7474" opacity="0.5" stroke="none" 
	d="
M38.437500,899.000000 
	C38.198971,861.182678 38.417507,823.365356 38.592781,785.547974 
	C38.941013,710.411743 39.265236,635.275391 39.599735,560.139099 
	C39.932007,485.502655 40.269566,410.866272 40.595585,336.229797 
	C40.829189,282.751648 41.023479,229.273315 41.329666,175.795593 
	C41.349129,172.396057 40.757534,170.293732 37.431911,168.284302 
	C26.672684,161.783264 27.011272,146.673355 37.865330,140.157349 
	C40.213490,138.747696 41.531189,137.552429 41.538010,134.538223 
	C41.629978,93.888336 41.871403,53.238792 42.065487,12.589109 
	C42.070145,11.613256 41.955898,10.636833 41.857834,9.008456 
	C28.464226,9.008456 15.200754,9.008456 1.468642,9.004229 
	C1.000000,6.345589 1.000000,3.691178 1.000000,1.021355 
	C31.333336,1.021355 61.666668,1.021355 92.000000,1.021355 
	C92.000000,3.365318 92.000000,5.687926 92.000000,8.505266 
	C78.216660,9.000000 64.433311,9.000000 50.364044,9.000000 
	C50.258091,10.937826 50.113605,12.391695 50.108555,13.846048 
	C49.970356,53.665211 49.877758,93.484589 49.659985,133.303284 
	C49.642704,136.462601 50.263168,138.242676 53.483685,139.710098 
	C59.584530,142.489929 62.692741,147.735489 62.635082,154.542938 
	C62.579376,161.120300 59.623646,166.330811 53.664043,168.954880 
	C49.983406,170.575500 49.464638,172.754181 49.452141,176.234863 
	C49.160824,257.371460 48.769089,338.507660 48.403965,419.644012 
	C48.063580,495.282349 47.733334,570.920715 47.397144,646.559082 
	C47.065395,721.197754 46.736115,795.836365 46.392719,870.475037 
	C46.355934,878.471130 46.264149,886.467407 46.115807,894.462097 
	C46.092422,895.722351 45.630730,896.974426 45.185848,898.615112 
	C42.958332,899.000000 40.916668,899.000000 38.437500,899.000000 
z"/>
</svg>